<?xml version="1.0" encoding="UTF-8"?>
<svg xmlns="http://www.w3.org/2000/svg" id="OBJECTS" viewBox="0 0 502.07 216.98">
  <defs>
    <style>
      .cls-1 {
        fill: #e5e5e6;
      }

      .cls-2 {
        fill: #edebe7;
      }

      .cls-3 {
        fill: #f0f4f1;
      }
    </style>
  </defs>
  <path class="cls-3" d="M0,3.9v76.2h498.53V3.9H0ZM31.36,76.22h-10.3V10.7h10.3v65.52ZM50.98,76.22h-10.3V10.7h10.3v65.52ZM70.6,76.22h-10.3V10.7h10.3v65.52ZM90.22,76.22h-10.3V10.7h10.3v65.52ZM109.84,76.22h-10.3V10.7h10.3v65.52ZM129.46,76.22h-10.3V10.7h10.3v65.52ZM149.08,76.22h-10.3V10.7h10.3v65.52ZM168.7,76.22h-10.3V10.7h10.3v65.52ZM188.32,76.22h-10.3V10.7h10.3v65.52ZM207.94,76.22h-10.3V10.7h10.3v65.52ZM227.56,76.22h-10.3V10.7h10.3v65.52ZM247.18,76.22h-10.3V10.7h10.3v65.52ZM266.8,76.22h-10.3V10.7h10.3v65.52ZM286.42,76.22h-10.3V10.7h10.3v65.52ZM306.04,76.22h-10.3V10.7h10.3v65.52ZM325.66,76.22h-10.3V10.7h10.3v65.52ZM345.28,76.22h-10.3V10.7h10.3v65.52ZM364.9,76.22h-10.3V10.7h10.3v65.52ZM384.52,76.22h-10.3V10.7h10.3v65.52ZM404.14,76.22h-10.3V10.7h10.3v65.52ZM423.76,76.22h-10.3V10.7h10.3v65.52ZM443.38,76.22h-10.3V10.7h10.3v65.52ZM463,76.22h-10.3V10.7h10.3v65.52ZM482.62,76.22h-10.3V10.7h10.3v65.52Z"></path>
  <rect class="cls-2" x="4.57" y="78.16" width="497.49" height="138.81"></rect>
  <rect class="cls-1" width="500.85" height="5.36"></rect>
</svg>
