<?xml version="1.0" encoding="UTF-8"?>
<svg xmlns="http://www.w3.org/2000/svg" id="Capa_1" viewBox="0 0 220.47 87.89">
  <defs>
    <style>
      .cls-1 {
        fill: #5ab04a;
      }

      .cls-2 {
        fill: #fecf65;
      }

      .cls-3 {
        fill: #813f3b;
      }

      .cls-4 {
        fill: #fff;
      }

      .cls-5 {
        fill: #2a9950;
      }

      .cls-6 {
        fill: #cfcfcf;
      }

      .cls-7 {
        fill: #377a29;
      }
    </style>
  </defs>
  <path class="cls-5" d="M18.96,54.9L99.24.26c.68-.47,1.57-.3,2.04.39l7,10.29c.47.68.27,1.59-.39,2.04L27.61,67.62c-.68.47-1.59.27-2.04-.39l-7-10.29c-.47-.68-.27-1.59.39-2.04Z"></path>
  <g>
    <rect class="cls-1" x="90.68" y="5.96" width="5" height="15.38" transform="translate(8.46 54.78) rotate(-34.23)"></rect>
    <rect class="cls-1" x="31.17" y="46.48" width="5" height="15.38" transform="translate(-24.64 28.33) rotate(-34.23)"></rect>
  </g>
  <rect class="cls-2" x="92.45" y="23.05" width="100.08" height="23.09" rx="1.47" ry="1.47"></rect>
  <g>
    <rect class="cls-3" x="182.97" y="23.08" width="5" height="23.09"></rect>
    <rect class="cls-3" x="96.96" y="23.08" width="5" height="23.09"></rect>
  </g>
  <rect class="cls-3" x="109.22" y="32.11" width="53.11" height="5"></rect>
  <rect class="cls-5" x="92.45" y="46.33" width="100.08" height="21.55" rx="1.47" ry="1.47"></rect>
  <g>
    <rect class="cls-7" x="175.98" y="46.33" width="5" height="21.55"></rect>
    <rect class="cls-7" x="103.99" y="46.33" width="5" height="21.55"></rect>
  </g>
  <rect class="cls-7" x="111.89" y="49.97" width="61.19" height="5"></rect>
  <rect class="cls-7" x="111.89" y="58.51" width="61.19" height="5"></rect>
  <path class="cls-6" d="M219.72,70.77l-213.29-.9-6.43,15.72c0,1.28,1.02,2.29,2.29,2.29h211.26c1.28,0,2.29-2.29,2.29-2.29l3.84-14.78.04-.04Z"></path>
  <rect class="cls-4" x="4.59" y="67.88" width="215.88" height="15.38" rx="2.29" ry="2.29"></rect>
</svg>
