<?xml version="1.0" encoding="UTF-8"?>
<svg xmlns="http://www.w3.org/2000/svg" id="Capa_1" viewBox="0 0 167.15 316.6">
  <defs>
    <style>
      .cls-1 {
        fill: #d98d81;
      }

      .cls-1, .cls-2, .cls-3, .cls-4, .cls-5, .cls-6, .cls-7 {
        fill-rule: evenodd;
      }

      .cls-2 {
        fill: #be7276;
      }

      .cls-3 {
        fill: #5b7b2d;
      }

      .cls-4 {
        fill: #beb729;
      }

      .cls-5 {
        fill: #78849c;
      }

      .cls-6 {
        fill: #dbd53a;
      }

      .cls-7 {
        fill: #28140e;
      }
    </style>
  </defs>
  <g>
    <g>
      <path class="cls-7" d="M46.1,24.15c-3.22,6.05-4.42,13.57-4.62,21.45-.19,7.69.55,15.7,1.25,22.97.33,3.45.67,6.73.87,9.72,2,26.75,4.37,53.57,8.74,80.03,2.63,15.89,5.98,31.66,10.41,47.2h2.94c-4.52-15.69-7.91-31.61-10.56-47.66-4.35-26.38-6.7-53.12-8.68-79.78-.34-3.95-.89-8.38-1.45-13.04-.76-6.27-1.51-12.95-1.58-19.42-.09-7.64.74-14.99,3.63-20.98.13-.26.03-.58-.23-.71-.26-.13-.58-.03-.72.24Z"></path>
      <path class="cls-7" d="M31.75,12.45h0c-.28.38-1.16,1.15-1.28,1.27-1.98,2.1-3.53,4.32-4.79,6.69-1.25,2.37-2.19,4.92-2.93,7.7-1.97,7.46-3.03,15.47-3.48,23.54-.22,3.97-.29,7.95-.24,11.89.05,4.03.24,8.01.47,11.86.87,13.38,3.1,26.57,6.07,39.65,6.86,30.26,17.66,59.9,24.33,89.89.05.23.16.43.29.6h2.17c.27-.33.39-.77.3-1.21-6.66-29.99-17.47-59.64-24.3-89.9-2.93-12.93-5.12-25.97-5.95-39.2-.24-3.67-.42-7.44-.53-11.26-.17-5.57-.17-11.26.14-16.88.36-6.35,1.1-12.61,2.45-18.54.6-2.69,1.41-5.15,2.52-7.47,1.12-2.32,2.53-4.49,4.34-6.58.12-.14,1.03-1,1.31-1.42.19-.27.19-.52.16-.63-.07-.29-.36-.46-.64-.38-.19.05-.34.2-.38.39Z"></path>
      <path class="cls-7" d="M52.28,12.85s.09-.05.13-.06c.27-.13.37-.45.24-.71-.13-.26-.46-.37-.72-.24-.88.39-.94.95-.68,1.53.25.53,1.14,1.21,2.32,2,1.54,1.02,3.59,2.29,4.9,3.8,1.82,2.07,3.32,4.4,4.65,6.84,1.19,2.19,2.22,4.49,3.16,6.8.65,1.57,1.27,3.14,1.84,4.7,3.28,8.55,5.76,17.36,7.72,26.31,2.94,13.46,4.68,27.24,6.16,40.85.09.77.78,1.33,1.56,1.25.78-.09,1.34-.78,1.26-1.56-1.49-13.71-3.27-27.58-6.21-41.15-1.97-9.09-4.47-18.05-7.78-26.74-.52-1.32-1.05-2.66-1.63-3.98-.87-1.98-1.82-3.93-2.89-5.82-1.8-3.19-3.93-6.18-6.49-8.75-2.03-2-5.41-3.46-6.98-4.56-.1-.07-.2-.14-.28-.22-.11-.09-.23-.22-.28-.28h0ZM52.26,12.87s-.02.08-.03.06c-.02-.02,0-.04.03-.06Z"></path>
      <path class="cls-7" d="M130.14,73.5s-.03.04-.04.06c-.11.19-.32.57-.62,1.09-1.5,2.64-4.97,8.81-5.91,11.18-1.85,4.67-3.5,9.38-4.94,14.16-.72,2.39-1.39,4.8-2.01,7.23-.61,2.42-1.16,4.86-1.68,7.3-1.88,9.03-3.33,18.12-4.59,27.24-2.93,21.2-4.74,42.55-8.07,63.7v.07s2.85,0,2.85,0c3.3-21.04,5.11-42.29,8.04-63.37,1.26-9.05,2.73-18.07,4.6-27.03.49-2.43,1.03-4.84,1.58-7.24.56-2.41,1.13-4.81,1.74-7.2,1.23-4.78,2.6-9.51,4.2-14.21.8-2.38,3.87-8.62,5.2-11.28.27-.54.47-.93.56-1.12.22-.43-.23-.61-.54-.67-.06-.03-.12-.03-.17-.03-.07,0-.11,0-.11,0-.03.04-.06.08-.07.13Z"></path>
      <path class="cls-7" d="M118.02,69.32c.03.16-.14.37-.33.67-.36.56-.95,1.26-1.65,2-2.34,2.52-5.84,5.6-6.46,6.33-3.7,4.38-6.9,9.15-9.6,14.21-1.34,2.53-2.58,5.12-3.67,7.77-1.1,2.65-2.05,5.36-2.92,8.08-4.03,13.01-5.77,25.59-6.36,38.12-.89,18.9.88,37.69,1.43,57.65.02.78.68,1.39,1.46,1.37.78-.02,1.39-.67,1.37-1.45-.56-19.89-2.33-38.6-1.43-57.44.59-12.29,2.33-24.64,6.31-37.39.81-2.66,1.74-5.3,2.75-7.89,1.01-2.6,2.11-5.16,3.32-7.67,2.43-5.02,5.3-9.84,8.7-14.27.66-.86,4.83-4.89,6.88-7.61.91-1.19,1.37-2.22,1.24-2.71-.06-.29-.34-.47-.63-.4-.29.06-.47.35-.41.63Z"></path>
      <path class="cls-7" d="M135.38,72.16c0-.09,0-.19.01-.3.64.59,1.25,1.55,1.85,2.65,1.63,3.05,3,7.23,3.72,8.96,1.77,4.2,3.05,8.5,3.82,12.89.39,2.19.64,4.4.77,6.64.13,2.2.14,4.43-.01,6.68-.69,11.41-3.16,23.28-6.59,35.08-5.11,17.57-12.33,34.98-18.94,50.49-.31.72.03,1.55.74,1.85.72.3,1.55-.03,1.85-.74,6.65-15.6,13.9-33.13,19.06-50.81,3.5-12,6.05-24.08,6.78-35.69.13-2.37.12-4.72-.06-7.04-.18-2.35-.54-4.67-1.03-6.96-.99-4.52-2.55-8.91-4.59-13.18-.82-1.71-2.45-5.87-4.29-8.86-.97-1.57-2-2.84-2.99-3.35-.35-.18-.66-.13-.89.15-.17.19-.32.67-.33,1.16,0,.47.09.94.23,1.13.13.19.3.27.47.28.14.01.32,0,.49-.17.22-.19.25-.53.06-.75-.04-.04-.08-.08-.13-.11h0ZM135.38,72.25s.07.06.02.08c-.01,0,0-.03-.01-.04v-.04Z"></path>
      <path class="cls-7" d="M86.6,198.89c-1.77-12.91-3.74-26.07-4.92-39.24-.78-8.66-1.23-17.32-.99-25.94.13-7.47,2.79-17.21,6.84-27.02,5.57-13.49,13.85-27.19,23.58-34.94,6.24-4.95,12.99-7.59,19.75-5.26,5.48,1.89,10.71,6.88,15.71,15.42,7.49,13.25,6.96,31.18,3.32,49.74-1.49,7.58-3.4,15.3-5.79,22.84-6.17,19.5-14.89,37.92-22.82,50.36-.14.22-.26.44-.34.68h7.61c8.25-12.42,17.33-29.75,23.83-48.28,2.75-7.84,5.1-15.89,6.59-23.87,3.83-20.67,2.54-40.67-6.4-55.02-6.18-10.26-12.9-15.79-19.5-18.15-8.92-3.18-18.02-.68-26.51,5.6-10.99,8.13-21.02,22.62-27.41,37.32-4.77,10.95-7.45,22.01-7.62,30.41-.1,8.97.47,17.98,1.46,26.98,1.44,13.28,3.76,26.52,5.84,39.53.32,2.15,2.33,3.64,4.48,3.32,2.15-.32,3.64-2.32,3.32-4.48Z"></path>
      <path class="cls-7" d="M48.22,205.53c-.76-1.44-2.22-4.26-2.72-5.57l-5.08-14.58c-2.6-7.99-5.23-15.98-7.63-24.03-1.59-5.31-3.08-10.65-4.4-16.05-2.51-9.94-5.02-20.87-7.22-32.18-3.08-15.85-5.53-32.52-5.06-48.65.32-11,1.78-21.77,5.32-31.69,2.38-6.66,5.76-12.88,10.02-18.62,4.34-5.78,11.07-6.88,17.47-5.45,6.68,1.48,13.09,5.76,16.59,11.15,6.26,9.06,10.24,19.13,12.87,29.63,4.07,16.19,4.97,33.42,5.3,49.86,0,1.77,1.43,3.2,3.2,3.2s3.2-1.43,3.2-3.2c.34-17.02.22-34.9-3.47-51.79-2.54-11.62-6.8-22.73-13.46-32.85-4.93-7.01-13.6-12.57-22.58-14.19-9.42-1.7-19.06.68-25.02,9.4-4.45,6.41-7.74,13.38-10.3,20.67-3.73,10.57-5.83,21.88-6.51,33.56-.99,16.71.56,34.13,3.46,50.63,2.04,11.56,4.79,22.65,7.35,32.76,1.44,5.53,3.05,11,4.78,16.43,2.57,8.08,5.38,16.08,8.16,24.09l5.53,14.87c.26.64.73,1.6,1.24,2.61h8.96Z"></path>
      <path class="cls-7" d="M127.87,66.75c1.26-.04,2.47-.68,3.19-1.82,1.06-1.57.79-2.81.68-3.35-.24-1.25-.99-2.07-1.98-2.64-.64-.38-1.86-.8-3.54-.21-1.24.44-5.49,3.78-6.66,5.58l-5.07,8.51c-2.99,5.48-5.83,11.01-7.91,16.84-1.42,3.97-2.46,8.08-3.18,12.3-1.31,9.09-2.6,19.2-4.16,29.63-.44,2.95-.99,5.92-1.5,8.9-1.2,6.99-2.48,14-3.08,21.02-.13,1.63-.23,3.26-.27,4.88-.04,2.48.04,4.94.19,7.37.62,10.06,2.43,19.65,5.74,28.28.56,1.68,2.37,2.58,4.05,2.02,1.68-.56,2.58-2.37,2.02-4.04-2.04-7.22-2.79-15.02-2.92-23.13-.05-3.33.1-6.7.16-10.11.07-4.82.04-9.69.29-14.58.23-4.58.46-9.18.98-13.72.23-1.97.49-3.92.83-5.86,1.81-10.33,4.42-20.15,6.41-29.05.91-4.67,2.4-9.11,4.1-13.48,1.75-4.48,3.72-8.89,5.9-13.23l4.36-8.22c.22-.37.77-1.23,1.32-1.88h0ZM128.17,66.42c.43-.44.84-.67,1.06-.34.34.49-.44.44-1.06.34Z"></path>
      <path class="cls-7" d="M126.85,64.59c-.39,2.34-.3,4.94.1,7.71,1.12,7.79,5.15,17.15,5.35,24.83.21,3.76.11,8.3-.08,13.37-.33,9.31-.7,20.43-2.74,31.73-.67,3.72-1.65,7.41-2.65,11.09-1.39,5.18-3.12,10.22-4.78,15.16-.73,2.17-1.48,4.29-2.18,6.4-1.86,5.61-3.65,10.96-5.79,15.69-2.5,5.55-5.2,10.32-8.36,13.8-.34.34-.59.74-.74,1.17h8.52c4.02-4.62,7.73-10.72,11.03-17.78,1.46-3.12,2.87-6.42,4.08-9.91.71-2.06,1.33-4.18,1.91-6.34,2.2-8.28,3.51-17.14,5.01-25.79.45-2.6.98-5.16,1.46-7.71,2.17-11.41,3.99-22.26,4.5-31.21.22-3.72.16-7.12.03-10.07-.26-4.28-1.52-9.02-3-13.74-1.29-4.13-2.75-8.25-3.47-12.02-.36-1.88-.58-3.64-.38-5.24.31-2.15-1.19-4.15-3.33-4.46-2.15-.31-4.15,1.19-4.47,3.34Z"></path>
      <path class="cls-7" d="M35.68,12.07c-3.63,3.4-5.79,9.25-6.74,16.17-1.67,12.18.23,27.89.41,35.85.17,3.5.34,7.03.62,10.56,1.08,13.86,3.27,27.84,5.41,41.91.53,3.47.99,6.96,1.48,10.45,1.15,8.15,2.25,16.3,3.79,24.38.66,3.47,1.35,6.93,2.18,10.36.56,2.29,1.19,4.56,1.85,6.81,3.7,12.71,8.17,25.06,13.15,36.97h6.86c-.03-.17-.08-.35-.15-.53-4.68-13.4-8.32-27.39-11.77-41.57-.68-2.79-1.39-5.59-2.11-8.38-2.88-11.17-5.92-22.35-7.88-33.72-.66-3.8-1.14-7.63-1.58-11.45-1.22-10.81-1.72-21.61-2.14-32.27-.19-4.64-.37-9.25-.46-13.83-.3-6.67-1.95-18.93-1.59-29.79.23-6.76.94-13.01,4.16-16.26,1.56-1.52,1.59-4.01.08-5.57-1.52-1.56-4.01-1.59-5.57-.08Z"></path>
      <path class="cls-7" d="M41.4,12.04l.36,1.34c.47,1.81,1.08,3.59,1.81,4.73,1.84,2.87,3.65,5.77,5.41,8.71,1.73,2.88,3.42,5.79,4.94,8.77,1.36,2.43,2.6,4.95,3.82,7.5,2.82,5.9,5.5,12,7.51,18.44.72,2.28,1.39,4.58,1.89,6.93,1.51,7.03,1.93,14.26,2.71,21.43.19,1.79.4,3.58.66,5.36,1.34,9.22,2.82,18.24,3.81,26.92.11,1.76,1.63,3.1,3.39,3,1.76-.11,3.1-1.63,2.99-3.39-.08-8.31-.17-17-.91-25.81-.12-1.47-.27-2.95-.48-4.42-.32-2.2-.76-4.38-1.22-6.56-1.06-5.11-2.45-10.12-3.77-15.15-.56-2.16-1.13-4.32-1.64-6.48-2.13-8.94-4.23-17.76-7.65-25.9-.89-2.12-1.9-4.17-2.94-6.19-1.37-2.51-2.83-4.99-4.38-7.41-2.28-3.57-4.73-7.03-7.19-10.46-.49-.69-.77-1.93-1.13-3.03-.53-1.62-1.13-3.1-1.83-3.99-1.12-1.44-2.47-2.16-3.93-2.19-.87-.02-1.86.11-2.9.75-1.88,1.09-2.52,3.5-1.43,5.38.48.84,1.23,1.43,2.08,1.73Z"></path>
      <path class="cls-7" d="M12.69,140.46s.05-.02.08,0h-.02s-.06,0-.06,0c-.03,0-.05.04-.06.08-.07.25.15.14.39,0l-.07-.04s-.07-.03-.1-.04l-.08-.02c.22-.03.44-.07.66-.14l-.14.07-.27.16c.39.2,1.01.63,1.65.71.21.02.43.01.65-.05.99-.27,1.55-.99,2.67-1.22.18-.04.37-.02.54.04,1.02.32,1.43.97,2.44,1.03.28.01.56-.1.8-.24,1.4-.85,2.29-1.28,2.87-2.41,1.5-.94,1.95-2.91,1.02-4.41-.93-1.5-2.91-1.95-4.4-1.02-.17,0-.11-.29-.28-.32-.39-.06-.44-.62-.9-.66-.17-.02-.34-.03-.5.04-.67.28-.62,1.07-1.34,1.3-.17.06-.36.04-.53,0-.96-.23-1.32-1.06-2.17-1.29-.29-.07-.59-.03-.86,0-2,.22-3.29.56-3.58.75-2.07.67-3.2,2.89-2.53,4.96.58,1.79,2.32,2.88,4.12,2.7Z"></path>
      <path class="cls-7" d="M11.03,84.99c.04.31.03.64.21.92.13.19-.12.43-.03.66.08.19-.14.34-.27.54.2-.71.19-1.43.01-2.1l.06-.02h.02c-.03-.23-.1-.43-.29-.58h-.01c-.42-.93-1.19-1.69-2.23-2.07-2.04-.75-4.3.3-5.05,2.34-.53.56-.31,1.24-.56,1.82-.17.4.08.75.02,1.16-.22,1.42.85,2.43,2.03,3.57.45.44,1.1.91,1.87.93.97.02,1.49-.14,2.59-.52.17-.06.33-.13.51-.08,1.02.27,1.08,1.39,2.11,1.52.28.03.46-.14.69-.28.78-.47.99-.7,1.51-1.11,1.77,0,3.2-1.44,3.2-3.2s-1.43-3.2-3.2-3.2c-.63-.44-.79-1.44-1.89-1.45-.73,0-.69.87-1.31,1.14h0ZM10.73,84.41c.09.2.17.4.22.61l-.08.02c-.11.03-.22.01-.32-.03-.44-.21-.31-.66-.59-.99-.11-.12-.11-.26-.02-.38.25-.36.54.56.8.77Z"></path>
      <path class="cls-7" d="M14.44,53.63s.07-.06.11-.11c.1-.12-.03-.29-.18-.45-.41-.41-.51-1.18-1.27-1.5-.93-.39-1.92.59-2.91.1-.34-.17-.57-.43-.73-.72-.08-2-1.68-3.66-3.72-3.77-.99-.34-1.7-.05-2.22-.05-.58,0-.92.4-1.32.52-1.22.36-1.38,1.56-1.94,2.39-.52.77-.11,1.72-.04,2.89.02.4.36.73.54,1.22.2.53.72,1.1,1.42,1.77.37.35.84.77,1.46,1,1.08.41,2.32-.1,3.54.56,1.12.61,1.16,2.02,2.2,2.56.35.18.71.14,1.07.13,1.72-.03,2.68.09,3.33-.18,1.76.18,3.33-1.11,3.5-2.87.17-1.75-1.1-3.31-2.84-3.5h0ZM6.44,54.95c-.05.03-.09.06-.14.09-.17.15-.47.05-.74.19-.08.04-.26.08-.3-.03-.01-.04-.03-.14.03-.16.4.02.78-.01,1.14-.1Z"></path>
      <path class="cls-7" d="M79.47,28.08l.82-.82c1.3-1.41,2.63-2.85,3.85-4.37.89-1.1,1.73-2.24,2.47-3.43,1.35-2.17.69-5.03-1.47-6.38-2.17-1.36-5.03-.7-6.38,1.47-.55.88-1.17,1.72-1.83,2.53-1.09,1.35-2.28,2.63-3.44,3.9-.13.14-1.82,1.86-2.23,2.64-1.34,2.53-.32,4.5.66,5.55,1.74,1.88,4.67,1.99,6.55.25.42-.39.76-.85,1-1.34h0ZM79.81,24.88v.03s0-.03,0-.03h0ZM79.8,24.86c-.19-.72-.55-1.4-1.08-1.99.51.55.89,1.21,1.08,1.99Z"></path>
      <path class="cls-7" d="M58.22,49.3c-1.59-1.25-3.89-1.33-5.6-.06-1.06.79-1.57,1.76-1.79,2.75-.25,1.13-.27,2.74,1.24,4.29.3.31,1.15.99,2.57,1.56,2.63,1.05,9.3,3.02,11.02,3.48,2.47.65,5-.83,5.65-3.3.65-2.47-.83-5.01-3.3-5.66-1.52-.4-7.35-2.1-9.8-3.07h0ZM59.57,54.93c-.28.63-.73,1.23-1.43,1.74.63-.47,1.12-1.07,1.43-1.74h0ZM59.6,54.87v.03s0-.03,0-.03h0ZM59.73,51.38c.21.53.28,1.05.28,1.53,0-.52-.09-1.03-.28-1.53Z"></path>
      <path class="cls-7" d="M95,71.79l.46-.62c1.52-2.05,1.08-4.96-.97-6.48-2.06-1.52-4.96-1.08-6.48.97-.21.28-1.79,2.6-2.02,3.49-.5,1.9.14,3.3.83,4.18.67.87,1.61,1.56,3.01,1.78,2.34.36,4.55-1.1,5.17-3.32h0ZM93.17,66.71c-.55-.38-1.19-.65-1.9-.75.77.12,1.39.39,1.9.75Z"></path>
      <path class="cls-7" d="M50.27,99.32c-1.14.09-2.25.6-3.08,1.52-2.2,2.47-1.1,4.56-.61,5.43.58,1.04,1.68,2.28,3.89,2.37.21,0,1.1-.17,1.67-.29,2.49-.33,4.27-2.6,3.99-5.11-.29-2.54-2.59-4.37-5.13-4.08-.16.02-.44.09-.73.16h0ZM52.19,108.34l.44-.09s-.26.06-.44.09h0ZM55.07,105.29c-.14.49-.41,1.09-.98,1.74.46-.52.79-1.11.98-1.74Z"></path>
      <path class="cls-7" d="M133.41,98.08c-.32-.57-.78-1.09-1.35-1.49-1.68-1.19-2.99-.99-3.55-.91-1.37.2-2.32.86-2.99,1.72-.71.9-1.43,2.37-.78,4.37.23.71,1.17,2.4,2.97,3.27,2.3,1.11,5.08.14,6.18-2.17.77-1.61.53-3.45-.48-4.79h0ZM127.12,104.41c.29.17.61.3.93.4-.29-.08-.61-.21-.93-.4h0ZM126.98,104.33l-.05-.03.17.1-.12-.07Z"></path>
      <path class="cls-7" d="M92.67,124.5c1.69,1.7,4.44,1.83,6.29.24,1.94-1.66,2.17-4.59.5-6.53-.08-.1-.25-.26-.43-.42-.83-1.2-2.2-1.99-3.78-2-2.13-.02-3.14,1.04-3.7,1.72-.91,1.11-1.36,2.49-.88,4.22.13.48.41,1.15.99,1.84.17.2.79.74,1.01.93h0ZM97.15,124.62c-.44.22-1.01.39-1.73.42.62-.03,1.19-.17,1.73-.42Z"></path>
      <path class="cls-7" d="M131.13,131.47c-.12-.49-.33-.98-.63-1.42-1.41-2.13-4.29-2.72-6.42-1.31-1.76,1.16-2.2,2.59-2.29,3.85-.05.69.04,1.4.32,2.13.23.59.9,1.45,1.68,2.39,1.63,1.97,4.55,2.25,6.52.62,1.88-1.56,2.22-4.3.82-6.26h0ZM129.56,136.19l-.15.12.04-.04.11-.08h0ZM130.19,135.57c-.17.21-.37.41-.61.61.23-.19.43-.39.61-.61h0ZM130.25,135.49h0s0,0,0,0Z"></path>
      <path class="cls-7" d="M163.02,96.36c.47-.27,1.76-1.01,2.13-1.27,2.1-1.45,2.63-4.34,1.17-6.44-1.46-2.1-4.34-2.63-6.44-1.17-.39.27-1.5.86-1.95,1.13-.67.42-1.07.84-1.22,1.01-1.56,1.77-1.24,3.48-.97,4.38.39,1.32,1.26,2.68,3.35,3.19,1.42.35,2.85,0,3.92-.84Z"></path>
      <path class="cls-7" d="M140.74,68.36c-.49,1.09-.58,2.37-.12,3.58.92,2.39,3.59,3.59,5.98,2.68,2-.77,3.25-5.33,3.25-5.33,0,0-.17,1.03-.37,1.45,1.1-2.3.12-5.07-2.19-6.17-2.3-1.1-5.07-.12-6.17,2.19-.18.37-.31,1.02-.39,1.61Z"></path>
      <path class="cls-7" d="M152.89,144.61c.08.87.27,2.14.77,2.93.46.72,1.19,1.59,2.77,2.38,2.29,1.14,5.07.21,6.21-2.07.88-1.77.52-3.85-.75-5.22-.13-.75-.38-1.57-.82-2.24-1.41-2.13-4.29-2.71-6.41-1.3-1.84,1.22-2.53,3.54-1.77,5.52Z"></path>
      <path class="cls-7" d="M145.33,164.52c-.37,1.62-.41,3.21-.08,4.68.38,1.7,1.21,3.29,2.67,4.66,1.86,1.75,4.79,1.67,6.54-.2,1.76-1.86,1.67-4.79-.19-6.55l.1-.54c.57-2.49-.99-4.98-3.49-5.54-2.49-.57-4.97.99-5.54,3.49Z"></path>
      <path class="cls-7" d="M118.78,58.83c-1.14-1.54-3.18-2.25-5.1-1.65-2.44.77-3.79,3.37-3.02,5.81.22.7.72,1.62,1.54,2.43.83.82,2.07,1.6,2.54,1.82,2.1.99,3.68.21,4.15-.03,1.24-.62,2-1.6,2.37-2.85.21-.72.32-1.66-.07-2.8-.11-.31-.34-1.09-1.32-1.99-.33-.31-.7-.56-1.09-.75h0ZM112.37,64.57c.22.59.56,1.14,1.02,1.62-.58-.59-.87-1.16-1.02-1.62Z"></path>
      <path class="cls-7" d="M107.8,68.66l-.67-1.9c-.69-2.46-3.25-3.9-5.71-3.21-2.46.69-3.9,3.25-3.21,5.71.24.88.53,1.84.92,2.75.36.84.81,1.63,1.34,2.32,1.56,2.02,4.48,2.4,6.5.83,2.02-1.56,2.39-4.47.83-6.5Z"></path>
      <path class="cls-7" d="M71.57,140.78c-.69-.98-1.76-1.69-3.03-1.9-2.45-.4-3.64.65-4.14,1.07-1.12.97-1.64,2.19-1.63,3.62.01.75.19,1.81,1.03,2.89.61.77,3.59,2.58,3.83,2.67,2.39.89,5.06-.34,5.95-2.73.79-2.14-.1-4.5-2.01-5.61Z"></path>
      <path class="cls-7" d="M72.57,161.48c-1.16-.05-2.33.33-3.27,1.16-2.23,1.99-1.81,3.93-1.67,4.63.32,1.61,1.48,3.85,4.78,3.77.77-.02,3.21-.81,3.47-.92,2.37-.95,3.53-3.65,2.58-6.02-.93-2.33-3.54-3.49-5.89-2.63h0ZM75.71,169.33l-.06.06h-.01s.07-.06.07-.06h0ZM75.82,169.19l-.02.02.02-.02Z"></path>
      <path class="cls-7" d="M106.12,169.5c2.49.18,4.69-1.66,4.94-4.16.26-2.54-1.6-4.81-4.14-5.07-.16-.01-.45-.03-.72-.03-1.44-.58-3.13-.42-4.48.57-2.05,1.52-2.49,4.42-.98,6.47.61.82,1.45,1.48,2.57,1.86.77.26,2.63.34,2.8.35Z"></path>
    </g>
    <g>
      <path class="cls-7" d="M20.35,259.51c1.14,11.62,3.62,22.56,8.46,31.66,4.49,8.46,10.99,15.44,20.26,19.95,7.24,3.52,16.23,5.46,27.3,5.48,7.94-.03,20.92-.08,32.56-1.8,8.78-1.31,16.81-3.6,21.69-7.39,4.92-3.7,8.86-8.29,12.07-13.43,4.6-7.35,7.64-15.88,9.47-24.75,4.65-22.56,1.58-47.24-1.48-58.56-1.14-4.23-2.61-6.89-3.51-7.82-.61-.61-2.6-1.73-6.07-2.14-5.72-.68-17.82-.93-32.15-.73-26.72.36-79.88-1.93-87.55,4.56-5.58,4.72-1.47,50.48-1.03,54.97h0ZM141.07,209.98c.08.33.17.68.27.98.71,1.95,1.47,4.68,2.18,7.99,2.59,11.91,4.72,31.05,1.49,48.91-2.42,13.45-7.85,26.18-18.39,34.25-4.24,3.09-11.17,4.63-18.65,5.48-11.29,1.29-23.83.82-31.48.56-9.52-.28-17.17-2.21-23.37-5.29-7.45-3.7-12.75-9.18-16.51-15.93-5.61-10.07-8.02-22.7-9.13-35.93-1.07-12.72-.96-25.94-1.16-38.08.59-.09,1.23-.22,1.92-.4,4.42-1.12,24.03-2.04,45.81-2.71,23.93-.73,50.44-1.02,62.71-.26,1.63.1,3.32.3,4.3.43h0ZM140.92,209.45c-.08-.06-.16-.12-.2-.16-.07-.07-.36-.19-.23-.27.19-.12.32.09.43.43Z"></path>
      <path class="cls-7" d="M31.19,234.61c.96-1.11,2.62-2.07,4.31-2.85,1.94-.9,3.98-1.59,5.35-1.46,1.1.1,1.81,1.06,2.62,1.92,1.66,1.76,3.27,3.75,5.15,5.15,1.35,1,2.82,1.75,4.47,2.12,2.19.5,4.18.25,6.03-.47,2.64-1.04,4.99-3.29,7.25-5.53,1.19-1.19,2.24-2.57,3.67-2.78,1.73-.26,2.83.64,3.87,1.53,1.56,1.36,3.02,2.86,4.67,3.9,1.52.95,3.18,1.58,5.09,1.69,2.04.12,3.85-.36,5.51-1.26,1.88-1.02,3.57-2.66,5.23-4.37,1.29-1.33,2.44-2.95,4.22-3.21,1.69-.24,2.74.72,3.72,1.67,1.48,1.45,2.84,3.05,4.35,4.21,1.53,1.17,3.2,1.96,5.13,2.2,1.88.24,3.65-.22,5.34-1.22,1.77-1.06,3.45-2.89,5.1-4.67.79-.86,1.44-1.87,2.34-2.1.21-.05.48-.08.64-.1.11.16.28.42.38.59.28.52.54,1.06.82,1.6,1.04,2.07,2.33,3.95,4.23,5.16.82.52,3.37,1.45,5.83-.93.58-.56,1.8-1.97,2.74-3.06,1.15,1.67,3.58,5.31,3.83,6.64.48,2.51,2.79,4.13,5.17,3.63,2.38-.5,3.92-2.95,3.44-5.45-.51-2.72-3.27-8.82-6.54-12.04-2.71-2.64-5.79-3.49-8.55-2.45-.47.18-1.19.57-1.97,1.3-.3.28-.74.75-1.22,1.29-.99-1.87-2.2-3.45-3.86-4.43-1.68-1-3.87-1.56-7.01-.76-1.43.36-2.82,1.15-4.13,2.25-1.46,1.22-2.84,2.92-4.27,4.35-.43.43-1.24,1.02-1.45,1.17-.5-.12-.89-.48-1.29-.84-.6-.54-1.18-1.16-1.77-1.78-1.4-1.47-2.87-2.91-4.59-3.93-2.1-1.23-4.54-1.93-7.61-1.49-1.79.26-3.4.96-4.88,1.95-1.72,1.15-3.25,2.75-4.76,4.3-.64.65-1.27,1.3-1.95,1.82-.5.39-1.01.75-1.66.71-1.43-.09-2.3-1.3-3.34-2.26-1.43-1.33-2.92-2.64-4.64-3.55-2.06-1.09-4.43-1.68-7.4-1.24-1.86.28-3.59,1.11-5.21,2.31-1.64,1.22-3.19,2.89-4.78,4.42-1.19,1.14-2.24,2.55-3.88,2.18-1.63-.37-2.67-1.89-3.83-3.19-1.45-1.63-2.91-3.21-4.54-4.32-1.49-1.02-3.11-1.68-4.94-1.84-4.05-.37-11.64,2.41-15.71,6.08-3.9,3.53-4.77,7.81-2.6,11.3,1.32,2.14,4.05,2.74,6.08,1.34,1.67-1.14,2.35-3.29,1.81-5.2Z"></path>
      <path class="cls-7" d="M116.73,290c-.31-.29-.76-.72-1.04-1.04-.99-1.1-2.03-2.19-3.17-2.99-1.14-.8-2.38-1.34-3.75-1.52-2.77-.39-5.03.19-7.04,1.27-1.59.86-3,2.07-4.38,3.34-.81.75-1.56,1.59-2.44,2.17-1.52-.91-3.62-2.31-5.43-3.31-1.83-1.01-3.52-1.61-4.59-1.7-2.75-.24-5.06.13-7.14.85-3.86,1.35-6.74,4.26-10.69,6.59-.52-.41-1.41-1.13-2-1.72-1.91-1.91-3.95-4.11-6.02-5.54-1.82-1.26-3.7-1.98-5.57-2.06-1.58-.07-3.17.06-4.76.3-2.08.31-4.14.83-6.14,1.28-1.04.24-3.22.51-4.6.82-1.2.27-2.09.68-2.53.97-1.83,1.21-2.19,2.9-2.17,4.14.02,1.06.22,3.48,3.37,4.58,1.47.52,3.02.17,4.14-.78,1.21-.21,2.94-.52,3.65-.68,1.8-.41,3.66-.89,5.53-1.17,1.06-.16,2.12-.26,3.16-.21.39.02.73.3,1.11.56.76.52,1.49,1.2,2.22,1.91,2.09,2.05,4.14,4.31,6.01,5.56,2.72,1.82,5.35,2.07,7.76.76,3.53-1.92,6.05-4.47,9.13-6.02,1.32-.67,2.77-1.06,4.62-.93.26.12,1.47.69,2.27,1.16,2.05,1.21,4.28,2.71,5.62,3.42,2,1.07,3.63.89,4.28.7,1.98-.6,3.7-1.74,5.29-3.12,1.42-1.23,2.68-2.76,4.29-3.62.54-.29,1.16-.45,1.91-.35.16.02.24.21.36.32.38.34.73.72,1.09,1.11,1.04,1.15,2.09,2.26,3.2,3.02,1.33.9,2.75,1.4,4.32,1.4s3.12-.52,4.76-1.54c1.48-.92,3.06-2.32,4.71-3.57.91-.69,1.78-1.43,2.74-1.54.76-.09,1.03.51,1.34.9.4.49.79.97,1.19,1.4.99,1.06,2.11,1.84,3.41,2.24,1.37.42,3,.51,5.08-.34,2.27-.92,3.39-3.6,2.52-5.98-.79-2.19-3-3.37-5.11-2.84-.34-.41-.83-.98-1.17-1.36-.61-.67-1.29-1.3-2.07-1.82-1.54-1.02-3.47-1.71-6.16-1.4-1.37.16-2.74.63-4.08,1.36-1.76.94-3.47,2.37-5.09,3.66-.57.45-1.44,1.03-1.94,1.35h0ZM39.93,287.88l.06.03h-.02s-.03-.03-.03-.03h0ZM39.67,287.76h.03s.06.04.06.04l-.08-.04Z"></path>
      <path class="cls-7" d="M46.79,242.54c-.38-.01-.74.02-1.08.08-1.56.25-3.17,1.25-4.2,3.09-.91,1.62-1.27,4.02-.87,5.76.44,1.94,1.62,3.31,3.13,4.03,1.57.74,3.4.77,5.19-.1,1.75-.85,3.5-2.82,4.2-4.76.65-1.84.48-3.64-.24-5.03-.74-1.44-2.09-2.8-4.68-3.12-.49-.06-.98-.04-1.44.05Z"></path>
      <path class="cls-7" d="M75.19,243.04c-1.33.22-2.65.79-3.34,2.08l-1.04,2.66c-1.06,3.44.26,5.42,1.45,6.5,1.47,1.33,4.08,1.97,6.73.78,2.34-1.06,4.44-3.56,4.7-6.16.18-1.86-.29-3.94-2.4-5.81-1.76-1.56-4.36-1.54-6.09-.06h0ZM77.26,251.56c-.78.15-2.47-.19-2.47-.19,0,0,1.15.17,2.47.19Z"></path>
      <path class="cls-7" d="M105.52,245.67c-.45.31-.85.65-1.17,1-1.16,1.29-1.59,2.79-1.49,4.21.1,1.29.61,2.72,2.17,3.96,3.23,2.59,7.86,1.14,9.87-1.94.74-1.13,1.11-2.35,1.11-3.55.19-1.57-.43-3.2-1.77-4.23-.81-.81-2.01-1.54-3.82-1.86-2.03-.36-3.99.67-4.9,2.4h0ZM108.88,252.66c-.06-.04-.12-.08-.17-.12l.17.12Z"></path>
      <path class="cls-7" d="M133.16,244.76c-2.9.67-3.53,2.54-3.75,3.13-.45,1.24-.37,2.44.16,3.58.36.76,1.03,1.71,2.35,2.32.72.33,2.57.72,4.35.22.19-.06.38-.12.57-.19.58-.04,1.1-.11,1.39-.24,2.13-.98,3.17-3.38,2.49-5.56-.16-2.3-2.02-4.18-4.38-4.3-1.2-.06-2.32.34-3.18,1.05h0ZM131.51,247.79h0s0,0,0,0Z"></path>
      <path class="cls-7" d="M58.74,270.61c.21.23.46.46.73.68,2.52,1.97,4.55,1.14,5.62.52.37-.22.74-.49,1.08-.84.18-.12.36-.25.53-.41,1.92-1.68,2.12-4.61.43-6.53-.99-1.14-2.08-1.75-3.13-2.01-.36-.19-.74-.34-1.15-.45-1.34-.34-2.97-.33-4.79.76-2.19,1.31-2.9,4.16-1.59,6.35.54.91,1.35,1.56,2.27,1.92Z"></path>
      <path class="cls-7" d="M91.36,262.69l-.13.11c-1.84,1.73-2.32,4.43-1.53,6.62.94,2.6,3.33,4.45,6.65,3.81,4.04-.79,6.37-5.07,5.93-8.18-.23-1.56-.98-2.92-2.21-3.89-1.09-.86-2.67-1.56-4.94-1.31-1.74.2-3.14,1.33-3.77,2.84Z"></path>
      <path class="cls-7" d="M122.82,260.51c-.22.04-.41.09-.55.14-1.94.72-2.54,1.92-2.83,2.54-.79,1.69-.61,3.3.47,4.77.47.63,1.61,1.72,3.45,1.97,1.16.15,2.74-.1,3.73-.63l.27-.15c.51-.1.96-.22,1.22-.36,2.26-1.19,3.12-4,1.92-6.26-.89-1.69-2.69-2.6-4.49-2.45-1.05-.23-2.19-.1-3.19.44h0ZM120.46,265.52c.09.47.27.94.52,1.38-.29-.49-.45-.95-.52-1.38Z"></path>
    </g>
    <path class="cls-3" d="M22,47.07c-.32,5.62-.31,11.3-.14,16.88.12,3.82.29,7.6.53,11.26.83,13.23,3.03,26.27,5.95,39.2,6.52,28.85,16.64,57.13,23.34,85.69,1.28-.04,2.57-.07,3.89-.1-4.08-10.2-7.76-20.69-10.89-31.45-.66-2.25-1.29-4.52-1.85-6.81-.83-3.43-1.52-6.89-2.18-10.36-1.53-8.07-2.64-16.23-3.79-24.38-.49-3.49-.96-6.98-1.48-10.45-2.14-14.07-4.34-28.05-5.41-41.91-.27-3.53-.45-7.05-.62-10.56-.18-7.96-2.08-23.67-.41-35.85.95-6.91,3.1-12.76,6.74-16.17,1.27-1.23,3.15-1.44,4.63-.64-.39-.3-.72-.68-.98-1.13s-.42-.93-.49-1.42c-2.21.69-4.27,1.89-6.04,3.7,0,.12-.04.29-.17.48-.28.42-1.18,1.28-1.31,1.42-.29.33-.57.67-.83,1.01-1.08,1.51-2.09,3.06-3.04,4.63-.16.31-.32.62-.47.94-1.11,2.32-1.92,4.78-2.52,7.47-1.35,5.93-2.09,12.2-2.45,18.54Z"></path>
    <path class="cls-3" d="M19.49,75.4c-.23-3.85-.42-7.83-.47-11.86-.05-3.93.02-7.92.24-11.89.38-6.91,1.22-13.77,2.68-20.29-.18.47-.35.94-.52,1.41-2.51,7.04-3.98,14.51-4.73,22.18.44.61.66,1.37.58,2.17-.08.76-.42,1.44-.92,1.94-.12,1.79-.21,3.59-.26,5.4-.22,7.48.19,15.09,1.01,22.67.2.41.31.88.31,1.37,0,.24-.02.47-.07.7.94,8.06,2.3,16.09,3.82,23.91,1.39,7.16,2.9,14.16,4.47,20.85.01.01.02.03.03.04.4.64.54,1.36.47,2.06.75,3.16,1.51,6.24,2.26,9.24,1.32,5.4,2.82,10.74,4.4,16.05,2.4,8.05,5.02,16.03,7.63,24.03l5.08,14.58c.04.11.09.24.15.37,1.03-.05,2.08-.09,3.15-.13-6.71-28.38-16.74-56.49-23.24-85.15-2.97-13.08-5.21-26.26-6.07-39.65Z"></path>
    <path class="cls-3" d="M38.61,63.77c.08,4.58.27,9.19.46,13.83.43,10.67.92,21.47,2.14,32.27.43,3.82.92,7.64,1.58,11.45,1.95,11.38,5,22.56,7.88,33.72.72,2.79,1.42,5.58,2.11,8.38.58,2.4,1.17,4.8,1.77,7.19-.78-4.09-1.51-8.19-2.19-12.29-4.38-26.46-6.74-53.28-8.74-80.03-.19-2.99-.53-6.27-.87-9.72-.7-7.27-1.44-15.29-1.25-22.97.2-7.88,1.4-15.4,4.62-21.45.13-.26.46-.37.72-.24.26.13.37.46.23.71-2.89,6-3.72,13.34-3.63,20.98.07,6.47.82,13.15,1.58,19.42.56,4.66,1.11,9.1,1.45,13.04.54,7.31,1.11,14.61,1.74,21.92.63-.39,1.34-.62,2.07-.68.29-.08.58-.14.73-.16,2.54-.29,4.83,1.54,5.13,4.08.28,2.49-1.48,4.75-3.94,5.11-.02,0-.03,0-.04,0-.57.12-1.47.29-1.67.29-.58-.02-1.08-.12-1.52-.28,1.54,16.58,3.48,33.11,6.18,49.51,2.33,14.13,5.24,28.16,8.99,42.02,4.84-.03,9.79-.03,14.66,0-1.54-9.64-3.21-19.41-4.55-29.23-.71.2-1.45.39-1.82.39-3.3.08-4.45-2.16-4.78-3.77-.14-.7-.57-2.65,1.67-4.63.94-.83,2.12-1.21,3.27-1.16.16-.06.32-.11.49-.15-.03-.27-.06-.54-.09-.81-.43-3.99-.79-7.98-1.04-11.97-1.21.86-2.8,1.12-4.29.57-.24-.09-3.22-1.89-3.83-2.67-.84-1.08-1.02-2.14-1.03-2.89-.02-1.43.51-2.65,1.63-3.62.49-.42,1.68-1.47,4.14-1.07,1.27.21,2.34.92,3.03,1.9,0,0,0,0,0,0-.07-2.42-.09-4.83-.06-7.24.09-4.47.89-9.69,2.34-15.25-.96-7.48-2.2-15.2-3.34-23.06-.26-1.77-.47-3.56-.66-5.36-.78-7.16-1.21-14.4-2.71-21.43-.5-2.35-1.17-4.65-1.89-6.93-.03-.11-.07-.23-.11-.35-2.27-.63-8.09-2.37-10.5-3.33-1.42-.57-2.27-1.26-2.57-1.56-1.51-1.55-1.49-3.16-1.24-4.29.22-.99.73-1.97,1.79-2.75,1.71-1.27,4-1.18,5.6.06.71.28,1.71.62,2.8.98-1.05-2.44-2.15-4.83-3.29-7.19-1.22-2.55-2.46-5.07-3.82-7.5-1.52-2.98-3.2-5.89-4.94-8.77-1.77-2.94-3.58-5.84-5.41-8.71-.46-.72-.87-1.69-1.23-2.77-.1.87-.49,1.72-1.17,2.38-3.22,3.25-3.93,9.49-4.16,16.26-.36,10.86,1.29,23.12,1.59,29.79Z"></path>
    <path class="cls-3" d="M57.73,23.83c1.55,2.42,3,4.9,4.38,7.41,1.03,2.02,2.05,4.07,2.94,6.19,2.2,5.24,3.85,10.75,5.32,16.4.91,1.07,1.33,2.53,1.01,3.99.44,1.83.88,3.66,1.32,5.5.52,2.16,1.08,4.32,1.64,6.48,1.32,5.03,2.71,10.05,3.77,15.15.46,2.19.9,4.37,1.22,6.56.21,1.47.36,2.95.48,4.42.14,1.65.25,3.29.34,4.92.38-.82.77-1.64,1.17-2.45-1.34-11.57-2.97-23.2-5.46-34.62-1.95-8.95-4.44-17.76-7.72-26.31-.58-1.56-1.19-3.13-1.84-4.7-.94-2.31-1.97-4.61-3.16-6.8-1.33-2.44-2.83-4.76-4.65-6.84-1.31-1.51-3.36-2.77-4.9-3.8-1.18-.78-2.07-1.47-2.32-2-.27-.58-.2-1.14.68-1.53.26-.13.58-.02.72.24.13.26.02.58-.24.71-.03.02-.08.04-.13.06.05.05.17.19.28.28.08.07.18.14.28.22,1.57,1.1,4.95,2.56,6.98,4.56,2.57,2.57,4.69,5.56,6.49,8.75,1.07,1.89,2.03,3.84,2.89,5.82.58,1.32,1.11,2.66,1.63,3.98,3.3,8.69,5.8,17.65,7.78,26.74,2.15,9.9,3.67,19.96,4.92,30-.45-14.55-1.58-29.54-5.15-43.73-2.64-10.5-6.61-20.57-12.87-29.63-3.5-5.39-9.91-9.67-16.59-11.15-.04,0-.08-.02-.11-.03.21.53.41,1.09.6,1.68.36,1.1.64,2.34,1.13,3.03,2.45,3.43,4.9,6.89,7.19,10.46Z"></path>
    <path class="cls-3" d="M98.92,101.35c-1.01,2.6-1.94,5.23-2.75,7.89-.69,2.22-1.32,4.42-1.88,6.61.29-.05.61-.07.96-.07,1.57.01,2.95.8,3.78,2,.18.17.35.33.43.42,1.67,1.94,1.44,4.87-.5,6.53-1.85,1.58-4.59,1.46-6.29-.24-.06-.05-.16-.13-.26-.22-1.43,7.52-2.2,14.95-2.56,22.36-.84,17.54.64,34.97,1.3,53.34,2.92.02,5.75.04,8.44.04-2.84-8.09-4.43-16.97-5-26.26-.15-2.44-.24-4.9-.19-7.37.04-1.62.14-3.25.27-4.88.59-7.01,1.88-14.03,3.08-21.02.51-2.98,1.06-5.95,1.5-8.9,1.56-10.42,2.85-20.54,4.16-29.63.72-4.22,1.76-8.32,3.18-12.3,1.28-3.59,2.85-7.08,4.57-10.5-.09.11-.17.2-.22.27-3.4,4.43-6.26,9.24-8.7,14.27-1.21,2.51-2.31,5.07-3.32,7.67Z"></path>
    <path class="cls-3" d="M87.03,146.5c.59-12.53,2.34-25.11,6.36-38.12.86-2.72,1.82-5.43,2.92-8.08,1.09-2.65,2.33-5.24,3.67-7.77,2.7-5.06,5.9-9.83,9.6-14.21.42-.5,2.2-2.1,4.03-3.86.29-.55.59-1.1.89-1.64l3.05-5.13s-.08.01-.12.02c-2.15,1.04-4.27,2.42-6.33,4.05-9.74,7.75-18.01,21.45-23.58,34.94-4.05,9.82-6.71,19.55-6.84,27.02-.23,8.61.21,17.28.99,25.94,1.18,13.17,3.15,26.32,4.92,39.24.06.36.06.71.02,1.05.57,0,1.14,0,1.71.01-.66-18.41-2.12-35.88-1.3-53.45Z"></path>
    <path class="cls-3" d="M112.18,103.56c-2,8.91-4.6,18.73-6.41,29.05-.34,1.93-.61,3.89-.83,5.86-.52,4.54-.75,9.13-.98,13.72-.13,2.6-.19,5.2-.22,7.78.84-.14,1.69-.04,2.48.27.27,0,.56.02.72.03.37.04.72.12,1.06.23.73-6.26,1.5-12.51,2.36-18.74,1.26-9.12,2.71-18.21,4.59-27.24.52-2.45,1.07-4.89,1.68-7.3.62-2.43,1.29-4.83,2.01-7.23,1.44-4.78,3.09-9.49,4.94-14.16.7-1.75,2.77-5.56,4.4-8.5-.43-1.73-.78-3.42-1.02-5.04-.19-1.3-.31-2.56-.34-3.78-.02.04-.04.07-.06.1l-4.36,8.22c-2.19,4.34-4.15,8.75-5.9,13.23-1.7,4.37-3.19,8.81-4.1,13.48Z"></path>
    <path class="cls-3" d="M119.34,107.88c-.55,2.4-1.09,4.81-1.58,7.24-1.88,8.96-3.35,17.98-4.6,27.03-.96,6.85-1.79,13.72-2.59,20.6.4.77.59,1.66.49,2.59-.09.98-.49,1.86-1.09,2.56-1.2,10.35-2.38,20.69-3.86,31,.1.37.2.74.3,1.1.87,0,1.72-.01,2.53-.02.04,0,.08,0,.12,0,1.79-2.74,3.44-5.92,5.02-9.41,2.14-4.73,3.93-10.08,5.79-15.69.69-2.1,1.45-4.23,2.18-6.4,1.66-4.93,3.39-9.98,4.78-15.16.99-3.68,1.98-7.37,2.65-11.09.27-1.47.51-2.94.72-4.4-1.97,1.52-4.8,1.22-6.4-.72-.78-.94-1.45-1.79-1.68-2.39-.28-.73-.37-1.44-.32-2.13.08-1.26.53-2.68,2.29-3.85,2.13-1.41,5.01-.82,6.42,1.31.22.33.39.67.51,1.03.74-7.34.98-14.36,1.2-20.58.08-2.04.14-3.99.17-5.84-1.32.93-3.1,1.14-4.67.39-1.81-.87-2.74-2.56-2.97-3.27-.65-2,.07-3.47.78-4.37.68-.86,1.63-1.52,2.99-1.72.57-.08,1.88-.28,3.55.91.08.05.15.11.22.16-.22-5.4-2.26-11.58-3.82-17.46-1.29,2.69-2.68,5.68-3.18,7.18-1.61,4.69-2.97,9.43-4.2,14.21-.61,2.39-1.18,4.79-1.74,7.2Z"></path>
    <path class="cls-3" d="M141.5,96.72c.13,2.95.19,6.34-.03,10.07-.51,8.96-2.33,19.8-4.5,31.21-.48,2.54-1.01,5.11-1.46,7.71-1.18,6.83-2.24,13.78-3.73,20.48,2.62-7.03,5.08-14.21,7.17-21.42,3.43-11.8,5.9-23.67,6.59-35.08.15-2.25.14-4.47.01-6.68-.13-2.24-.38-4.45-.77-6.64-.77-4.39-2.05-8.69-3.82-12.89-.72-1.73-2.08-5.92-3.72-8.96-.6-1.11-1.21-2.07-1.85-2.65,0,.11-.02.21-.01.3.04.03.09.06.13.11.18.21.17.53-.03.72.78,3.2,1.96,6.58,3.03,9.98,1.48,4.72,2.74,9.46,3,13.74Z"></path>
    <path class="cls-3" d="M148.38,102.82c.18,2.32.19,4.67.06,7.04-.73,11.61-3.27,23.69-6.78,35.69-5.16,17.68-12.41,35.21-19.06,50.81-.3.71-1.13,1.05-1.85.74-.36-.15-.62-.43-.76-.77-.73,1.24-1.48,2.43-2.25,3.57,2.27,0,4.44.01,6.51.04,7.07-12.13,14.43-28.38,19.83-45.46,2.39-7.54,4.3-15.26,5.79-22.84,3.65-18.56,4.18-36.49-3.32-49.74-3.84-6.56-7.81-11.03-11.94-13.6.06.67.16,1.37.29,2.07.17-.05.36-.03.56.08.99.51,2.02,1.77,2.99,3.35,1.83,2.99,3.47,7.15,4.29,8.86,2.04,4.27,3.6,8.66,4.59,13.18.49,2.29.85,4.61,1.03,6.96Z"></path>
    <path class="cls-3" d="M106.93,169.49c-.27.03-.54.03-.82.01-.16,0-1.65-.08-2.52-.27-.07,2.58-.14,5.13-.11,7.66.07,4.58.34,9.06.93,13.4.89-6.92,1.7-13.86,2.5-20.8Z"></path>
    <path class="cls-5" d="M136.77,209.55c-12.27-.76-38.78-.47-62.71.26-21.78.67-41.39,1.59-45.81,2.71-.69.17-1.32.31-1.92.4.07,4.46.11,9.06.17,13.73,4.18-3.42,11.25-5.92,15.11-5.57,1.83.17,3.45.83,4.94,1.84,1.63,1.11,3.09,2.69,4.54,4.32,1.16,1.3,2.2,2.82,3.83,3.19,1.63.37,2.69-1.04,3.88-2.18,1.59-1.53,3.14-3.19,4.78-4.42,1.63-1.21,3.35-2.03,5.21-2.31,2.97-.45,5.34.15,7.4,1.24,1.73.91,3.21,2.22,4.64,3.55,1.04.96,1.9,2.17,3.34,2.26.66.04,1.16-.32,1.66-.71.68-.52,1.32-1.16,1.95-1.82,1.51-1.55,3.04-3.15,4.76-4.3,1.48-.99,3.09-1.69,4.88-1.95,3.08-.44,5.51.26,7.61,1.49,1.72,1.02,3.19,2.45,4.59,3.93.59.62,1.16,1.24,1.77,1.78.41.36.79.72,1.29.84.21-.16,1.02-.74,1.45-1.17,1.42-1.43,2.81-3.12,4.27-4.35,1.31-1.1,2.7-1.88,4.13-2.25,3.14-.8,5.33-.24,7.01.76,1.65.99,2.87,2.57,3.86,4.43.48-.54.92-1.01,1.22-1.29.77-.72,1.49-1.11,1.97-1.3,2.58-.97,5.45-.29,8.02,1.96-.34-2.04-.72-3.94-1.09-5.7-.72-3.31-1.47-6.03-2.18-7.99-.11-.29-.19-.65-.27-.98-.98-.13-2.67-.33-4.3-.43Z"></path>
    <path class="cls-6" d="M106.7,234.86c-1.52-1.16-2.87-2.76-4.35-4.21-.98-.95-2.02-1.92-3.72-1.67-1.78.26-2.92,1.87-4.22,3.21-1.66,1.72-3.35,3.35-5.23,4.37-1.67.9-3.48,1.39-5.51,1.26-1.92-.12-3.58-.75-5.09-1.69-1.65-1.04-3.11-2.53-4.67-3.9-1.03-.89-2.13-1.79-3.87-1.53-1.43.22-2.48,1.59-3.67,2.78-2.27,2.25-4.61,4.49-7.25,5.53-1.84.73-3.83.97-6.03.47-1.65-.37-3.12-1.12-4.47-2.12-1.88-1.4-3.49-3.38-5.15-5.15-.81-.86-1.52-1.82-2.62-1.92-1.37-.13-3.41.56-5.35,1.46-1.69.78-3.35,1.74-4.31,2.85.54,1.91-.14,4.05-1.81,5.2-.78.54-1.67.78-2.53.75.14,3.49.35,6.98.64,10.43,1.11,13.23,3.52,25.86,9.13,35.93.03.06.07.13.11.19.37-.13.79-.26,1.26-.37,1.38-.31,3.55-.59,4.6-.82,2-.46,4.07-.97,6.14-1.28,1.59-.24,3.18-.37,4.76-.3,1.87.08,3.75.81,5.57,2.06,2.07,1.43,4.11,3.63,6.02,5.54.59.59,1.48,1.32,2,1.72,3.95-2.33,6.83-5.24,10.69-6.59,2.08-.73,4.38-1.09,7.14-.85,1.07.1,2.77.69,4.59,1.7,1.81,1,3.92,2.4,5.43,3.31.88-.59,1.63-1.42,2.44-2.17,1.37-1.27,2.78-2.49,4.38-3.34,2-1.08,4.27-1.66,7.04-1.27,1.37.19,2.61.72,3.75,1.52,1.14.79,2.18,1.89,3.17,2.99.28.31.73.74,1.04,1.04.51-.32,1.37-.9,1.94-1.36,1.62-1.29,3.34-2.72,5.09-3.66,1.34-.72,2.7-1.2,4.08-1.36,2.69-.31,4.61.38,6.16,1.4.78.52,1.46,1.14,2.07,1.82.34.37.83.95,1.17,1.36.36-.09.71-.13,1.06-.12,3.3-6.15,5.43-13.08,6.71-20.22,1.52-8.43,1.85-17.14,1.51-25.25-1.69-.36-3.09-1.74-3.45-3.63-.25-1.33-2.68-4.97-3.83-6.64-.94,1.1-2.16,2.51-2.74,3.06-2.46,2.38-5.01,1.44-5.83.93-1.9-1.21-3.18-3.09-4.23-5.16-.28-.54-.53-1.09-.82-1.6-.1-.17-.27-.44-.38-.59-.17.01-.44.04-.64.1-.9.23-1.54,1.24-2.34,2.1-1.65,1.78-3.34,3.61-5.1,4.67-1.68,1-3.45,1.46-5.34,1.22-1.93-.24-3.6-1.03-5.13-2.2h0ZM104.35,246.68c.32-.35.72-.69,1.17-1,.91-1.74,2.87-2.76,4.9-2.4,1.81.32,3,1.04,3.82,1.86,1.34,1.02,1.97,2.66,1.77,4.23,0,1.19-.37,2.42-1.11,3.55-2.02,3.08-6.64,4.53-9.87,1.94-1.56-1.24-2.07-2.67-2.17-3.96-.11-1.42.33-2.91,1.49-4.21h0ZM122.27,260.65c.14-.06.33-.1.55-.14,1-.54,2.14-.67,3.19-.44,1.8-.15,3.59.76,4.49,2.45,1.19,2.26.33,5.06-1.93,6.26-.26.14-.71.26-1.22.36l-.27.15c-.99.53-2.57.78-3.73.63-1.84-.25-2.99-1.34-3.45-1.97-1.08-1.47-1.26-3.07-.47-4.77.29-.62.89-1.82,2.83-2.54h0ZM91.23,262.81l.13-.11c.62-1.51,2.03-2.64,3.77-2.84,2.27-.25,3.85.44,4.94,1.31,1.23.98,1.98,2.33,2.21,3.89.44,3.11-1.88,7.39-5.93,8.18-3.32.64-5.71-1.21-6.65-3.81-.79-2.19-.31-4.89,1.53-6.62h0ZM67.13,264.04c1.69,1.92,1.49,4.85-.43,6.53-.17.15-.35.29-.53.41-.34.34-.71.62-1.08.84-1.07.62-3.1,1.46-5.62-.52-.28-.22-.52-.45-.73-.68-.92-.36-1.72-1.01-2.27-1.92-1.32-2.19-.6-5.04,1.59-6.35,1.82-1.1,3.45-1.11,4.79-.76.41.11.79.26,1.15.45,1.05.26,2.13.87,3.13,2.01h0ZM81.28,243.09c2.1,1.87,2.58,3.95,2.4,5.81-.26,2.6-2.35,5.1-4.7,6.16-2.65,1.19-5.26.56-6.73-.78-1.19-1.08-2.51-3.06-1.45-6.5l1.04-2.66c.69-1.29,2.02-1.86,3.34-2.08,1.73-1.49,4.34-1.5,6.09.06h0ZM129.42,247.89c.22-.59.84-2.45,3.75-3.13.87-.71,1.98-1.11,3.18-1.05,2.36.12,4.22,2,4.38,4.3.67,2.18-.36,4.58-2.49,5.56-.29.13-.81.21-1.39.24-.18.07-.38.13-.57.19-1.79.51-3.63.11-4.35-.22-1.32-.61-1.99-1.55-2.35-2.32-.53-1.14-.61-2.34-.16-3.58h0ZM48.23,242.49c2.59.32,3.94,1.68,4.68,3.12.72,1.39.89,3.19.24,5.03-.69,1.94-2.45,3.92-4.2,4.76-1.79.86-3.62.84-5.2.1-1.51-.72-2.69-2.09-3.13-4.03-.4-1.74-.04-4.14.87-5.76,1.03-1.84,2.64-2.84,4.2-3.09.34-.06.71-.09,1.08-.08.47-.09.95-.11,1.44-.05Z"></path>
    <path class="cls-5" d="M91.86,300.02c-1.34-.71-3.57-2.21-5.62-3.42-.8-.47-2-1.04-2.27-1.16-1.85-.13-3.3.26-4.62.93-3.08,1.55-5.6,4.11-9.13,6.02-2.41,1.31-5.04,1.06-7.76-.76-1.87-1.25-3.92-3.51-6.01-5.56-.73-.71-1.46-1.39-2.22-1.91-.38-.26-.72-.54-1.11-.56-1.04-.04-2.1.05-3.16.21-1.87.28-3.73.76-5.53,1.17-.36.08-.98.2-1.67.33,2.88,2.99,6.3,5.53,10.36,7.55,6.2,3.08,13.85,5.01,23.37,5.29,7.65.26,20.19.73,31.48-.56,7.48-.86,14.41-2.39,18.65-5.48,2.25-1.72,4.27-3.66,6.08-5.77-.48-.35-.94-.75-1.37-1.21-.41-.42-.79-.91-1.19-1.4-.32-.39-.58-.99-1.34-.9-.97.11-1.84.86-2.74,1.54-1.65,1.25-3.23,2.65-4.71,3.57-1.64,1.02-3.26,1.54-4.76,1.54s-2.99-.5-4.32-1.4c-1.11-.76-2.15-1.87-3.2-3.02-.36-.39-.71-.77-1.09-1.11-.12-.11-.2-.3-.36-.32-.75-.11-1.37.05-1.91.35-1.62.87-2.88,2.4-4.29,3.62-1.59,1.38-3.3,2.52-5.29,3.12-.64.19-2.27.36-4.28-.7Z"></path>
  </g>
  <path class="cls-1" d="M26.33,212.92c.07,4.46.11,9.06.17,13.73,4.18-3.42,11.25-5.92,15.11-5.57,1.83.17,3.45.83,4.94,1.84,1.63,1.11,3.09,2.69,4.54,4.32,1.16,1.3,2.2,2.82,3.83,3.19,1.63.37,2.69-1.04,3.88-2.18,1.59-1.53,3.14-3.19,4.78-4.42,1.63-1.21,3.35-2.03,5.21-2.31,2.97-.45,5.34.15,7.4,1.24,1.73.91,3.21,2.22,4.64,3.55,1.04.96,1.9,2.17,3.34,2.26.66.04,1.16-.32,1.66-.71.68-.52,1.32-1.16,1.95-1.82,1.51-1.55,3.04-3.15,4.76-4.3,1.48-.99,3.09-1.69,4.88-1.95,3.08-.44,5.51.26,7.61,1.49,1.72,1.02,3.19,2.45,4.59,3.93.59.62,1.16,1.24,1.77,1.78.41.36.79.72,1.29.84.21-.16,1.02-.74,1.45-1.17,1.42-1.43,2.81-3.12,4.27-4.35,1.31-1.1,2.7-1.88,4.13-2.25,3.14-.8,5.33-.24,7.01.76,1.65.99,2.87,2.57,3.86,4.43.48-.54.92-1.01,1.22-1.29.77-.72,1.49-1.11,1.97-1.3,2.58-.98,5.45-.29,8.02,1.96-.34-2.04-.72-3.94-1.09-5.7-.72-3.31-1.47-6.03-2.18-7.99-.11-.29-.19-.65-.27-.98-.98-.13-2.67-.33-4.3-.43-12.27-.76-38.78-.47-62.71.26-21.78.67-41.39,1.59-45.81,2.71-.69.17-1.32.31-1.92.4Z"></path>
  <path class="cls-1" d="M79.35,296.37c-3.08,1.55-5.6,4.11-9.13,6.02-2.41,1.31-5.04,1.06-7.76-.76-1.87-1.25-3.92-3.51-6.01-5.56-.73-.71-1.46-1.39-2.22-1.91-.38-.26-.72-.54-1.11-.56-1.04-.04-2.1.05-3.16.21-1.87.28-3.73.76-5.53,1.17-.36.08-.98.2-1.67.33,2.88,2.99,6.3,5.53,10.36,7.55,6.2,3.08,13.85,5.01,23.37,5.29,7.65.26,20.19.73,31.48-.56,7.48-.86,14.41-2.39,18.65-5.48,2.25-1.72,4.27-3.66,6.08-5.77-.48-.35-.94-.75-1.37-1.21-.41-.42-.79-.91-1.19-1.4-.32-.39-.58-.99-1.34-.9-.97.11-1.84.86-2.74,1.54-1.65,1.25-3.23,2.65-4.71,3.57-1.64,1.02-3.26,1.54-4.76,1.54s-2.99-.5-4.32-1.4c-1.11-.76-2.15-1.87-3.2-3.02-.36-.39-.71-.77-1.09-1.11-.12-.11-.2-.3-.36-.32-.75-.11-1.37.05-1.91.35-1.62.87-2.88,2.4-4.29,3.62-1.59,1.38-3.3,2.52-5.29,3.12-.64.19-2.27.36-4.28-.7-1.34-.71-3.57-2.21-5.62-3.42-.8-.47-2-1.04-2.27-1.16-1.85-.13-3.3.26-4.62.93Z"></path>
  <path class="cls-2" d="M112.27,298.08c-1.11-.76-2.15-1.87-3.2-3.02-.36-.39-.71-.77-1.09-1.11-.12-.11-.2-.3-.36-.32-.53-.08-1-.02-1.42.13-5.88,7.47-14.3,12.53-26.03,14.51,7.64.24,18.18.42,27.81-.68,7.48-.86,14.41-2.39,18.65-5.48,2.25-1.72,4.27-3.66,6.08-5.77-.48-.35-.94-.75-1.37-1.21-.41-.42-.79-.91-1.19-1.4-.32-.39-.58-.99-1.34-.9-.97.11-1.84.86-2.74,1.54-1.65,1.25-3.23,2.65-4.71,3.57-1.64,1.02-3.26,1.54-4.76,1.54s-2.99-.5-4.32-1.4Z"></path>
  <path class="cls-4" d="M115.69,288.96c.28.31.73.74,1.04,1.04.51-.32,1.37-.9,1.94-1.36,1.62-1.29,3.34-2.72,5.09-3.66,1.34-.72,2.7-1.2,4.08-1.36,2.69-.31,4.61.38,6.16,1.4.78.52,1.46,1.14,2.07,1.82.34.37.83.95,1.17,1.36.36-.09.71-.13,1.06-.12,3.3-6.15,5.43-13.08,6.71-20.22,1.52-8.43,1.85-17.14,1.51-25.25-1.69-.36-3.09-1.74-3.45-3.63-.25-1.33-2.68-4.97-3.83-6.64-.94,1.1-2.16,2.51-2.74,3.06-2.46,2.38-5.01,1.44-5.83.93-1.9-1.21-3.18-3.09-4.23-5.16-.28-.54-.53-1.09-.82-1.6-.1-.17-.27-.44-.38-.59-.17.01-.44.04-.64.1-.9.23-1.54,1.24-2.34,2.1-1.49,1.61-3.01,3.25-4.59,4.34,1.07,19.63-.3,36.9-6.31,49.78.39.2.78.43,1.15.69,1.14.79,2.18,1.89,3.17,2.99h0ZM128.57,268.78c-.26.14-.71.26-1.22.36l-.27.15c-.99.53-2.57.78-3.73.63-1.84-.25-2.99-1.34-3.45-1.97-1.08-1.47-1.26-3.07-.47-4.77.29-.62.89-1.82,2.83-2.54.14-.06.33-.1.55-.14,1-.54,2.14-.67,3.19-.44,1.8-.15,3.59.76,4.49,2.45,1.19,2.26.33,5.06-1.93,6.26h0ZM131.92,253.79c-1.32-.61-1.99-1.55-2.35-2.32-.53-1.14-.61-2.34-.16-3.58.22-.59.84-2.45,3.75-3.13.87-.71,1.98-1.11,3.18-1.05,2.36.12,4.22,2,4.38,4.3.67,2.18-.36,4.58-2.49,5.56-.29.13-.81.21-1.39.24-.18.07-.38.13-.57.19-1.79.51-3.63.11-4.35-.22Z"></path>
  <path class="cls-2" d="M129.55,220.83c1.65.99,2.87,2.57,3.86,4.43.48-.54.92-1.01,1.22-1.29.77-.72,1.49-1.11,1.97-1.3,2.58-.98,5.45-.29,8.02,1.96-.34-2.04-.72-3.94-1.09-5.7-.72-3.31-1.47-6.03-2.18-7.99-.11-.29-.19-.65-.27-.98-.98-.13-2.67-.33-4.3-.43-5.13-.32-12.75-.45-21.63-.45.64,5.01,1.21,9.93,1.66,14.75.53-.55,1.07-1.08,1.61-1.54,1.31-1.1,2.7-1.88,4.13-2.25,3.14-.8,5.33-.24,7.01.76Z"></path>
</svg>
