<?xml version="1.0" encoding="UTF-8"?>
<svg xmlns="http://www.w3.org/2000/svg" xmlns:xlink="http://www.w3.org/1999/xlink" id="OBJECTS" viewBox="0 0 545.47 603.2">
  <defs>
    <style>
      .cls-1 {
        fill: #a7d9eb;
      }

      .cls-2 {
        fill: none;
      }

      .cls-3 {
        fill: #c7ecff;
      }

      .cls-4 {
        clip-path: url(#clippath);
      }
    </style>
    <clipPath id="clippath">
      <rect class="cls-2" width="500" height="500"></rect>
    </clipPath>
  </defs>
  <g class="cls-4">
    <g>
      <g>
        <rect class="cls-1" x="266.88" y="274.13" width="96.59" height="329.07"></rect>
        <g>
          <rect class="cls-3" x="296.73" y="285.52" width="5.86" height="11.71"></rect>
          <rect class="cls-3" x="312.65" y="285.71" width="5.86" height="11.71"></rect>
          <rect class="cls-3" x="328.58" y="285.52" width="5.86" height="11.71"></rect>
          <rect class="cls-3" x="344.5" y="285.71" width="5.86" height="11.71"></rect>
        </g>
        <g>
          <rect class="cls-3" x="296.73" y="307.12" width="5.86" height="11.71"></rect>
          <rect class="cls-3" x="312.65" y="307.31" width="5.86" height="11.71"></rect>
          <rect class="cls-3" x="328.58" y="307.12" width="5.86" height="11.71"></rect>
          <rect class="cls-3" x="344.5" y="307.31" width="5.86" height="11.71"></rect>
        </g>
        <g>
          <rect class="cls-3" x="296.73" y="328.72" width="5.86" height="11.71"></rect>
          <rect class="cls-3" x="312.65" y="328.91" width="5.86" height="11.71"></rect>
          <rect class="cls-3" x="328.58" y="328.72" width="5.86" height="11.71"></rect>
          <rect class="cls-3" x="344.5" y="328.91" width="5.86" height="11.71"></rect>
        </g>
        <g>
          <rect class="cls-3" x="296.73" y="347.65" width="5.86" height="11.71"></rect>
          <rect class="cls-3" x="312.65" y="347.83" width="5.86" height="11.71"></rect>
          <rect class="cls-3" x="328.58" y="347.65" width="5.86" height="11.71"></rect>
          <rect class="cls-3" x="344.5" y="347.83" width="5.86" height="11.71"></rect>
        </g>
        <g>
          <rect class="cls-3" x="296.73" y="369.25" width="5.86" height="11.71"></rect>
          <rect class="cls-3" x="312.65" y="369.43" width="5.86" height="11.72"></rect>
          <rect class="cls-3" x="328.58" y="369.25" width="5.86" height="11.71"></rect>
          <rect class="cls-3" x="344.5" y="369.43" width="5.86" height="11.72"></rect>
        </g>
        <g>
          <rect class="cls-3" x="296.73" y="390.85" width="5.86" height="11.71"></rect>
          <rect class="cls-3" x="312.65" y="391.03" width="5.86" height="11.71"></rect>
          <rect class="cls-3" x="328.58" y="390.85" width="5.86" height="11.71"></rect>
          <rect class="cls-3" x="344.5" y="391.03" width="5.86" height="11.71"></rect>
        </g>
        <g>
          <rect class="cls-3" x="296.73" y="412.69" width="5.86" height="11.71"></rect>
          <rect class="cls-3" x="312.65" y="412.87" width="5.86" height="11.71"></rect>
          <rect class="cls-3" x="328.58" y="412.69" width="5.86" height="11.71"></rect>
          <rect class="cls-3" x="344.5" y="412.87" width="5.86" height="11.71"></rect>
        </g>
        <g>
          <rect class="cls-3" x="296.73" y="434.29" width="5.86" height="11.71"></rect>
          <rect class="cls-3" x="312.65" y="434.47" width="5.86" height="11.72"></rect>
          <rect class="cls-3" x="328.58" y="434.29" width="5.86" height="11.71"></rect>
          <rect class="cls-3" x="344.5" y="434.47" width="5.86" height="11.72"></rect>
        </g>
        <g>
          <rect class="cls-3" x="296.73" y="455.89" width="5.86" height="11.71"></rect>
          <rect class="cls-3" x="312.65" y="456.07" width="5.86" height="11.71"></rect>
          <rect class="cls-3" x="328.58" y="455.89" width="5.86" height="11.71"></rect>
          <rect class="cls-3" x="344.5" y="456.07" width="5.86" height="11.71"></rect>
        </g>
        <g>
          <rect class="cls-3" x="296.73" y="474.81" width="5.86" height="11.71"></rect>
          <rect class="cls-3" x="312.65" y="475" width="5.86" height="11.71"></rect>
          <rect class="cls-3" x="328.58" y="474.81" width="5.86" height="11.71"></rect>
          <rect class="cls-3" x="344.5" y="475" width="5.86" height="11.71"></rect>
        </g>
      </g>
      <g>
        <rect class="cls-1" x="448.89" y="198.41" width="96.59" height="329.07"></rect>
        <g>
          <rect class="cls-3" x="461.75" y="210.79" width="7.77" height="15.53"></rect>
          <rect class="cls-3" x="482.86" y="211.03" width="7.77" height="15.53"></rect>
          <rect class="cls-3" x="503.98" y="210.79" width="7.77" height="15.53"></rect>
          <rect class="cls-3" x="525.09" y="211.03" width="7.77" height="15.53"></rect>
        </g>
        <g>
          <rect class="cls-3" x="461.75" y="239.42" width="7.77" height="15.53"></rect>
          <rect class="cls-3" x="482.86" y="239.67" width="7.77" height="15.53"></rect>
          <rect class="cls-3" x="503.98" y="239.42" width="7.77" height="15.53"></rect>
          <rect class="cls-3" x="525.09" y="239.67" width="7.77" height="15.53"></rect>
        </g>
        <g>
          <rect class="cls-3" x="461.75" y="268.06" width="7.77" height="15.53"></rect>
          <rect class="cls-3" x="482.86" y="268.3" width="7.77" height="15.53"></rect>
          <rect class="cls-3" x="503.98" y="268.06" width="7.77" height="15.53"></rect>
          <rect class="cls-3" x="525.09" y="268.3" width="7.77" height="15.53"></rect>
        </g>
        <g>
          <rect class="cls-3" x="461.75" y="296.7" width="7.77" height="15.53"></rect>
          <rect class="cls-3" x="482.86" y="296.94" width="7.77" height="15.53"></rect>
          <rect class="cls-3" x="503.98" y="296.7" width="7.77" height="15.53"></rect>
          <rect class="cls-3" x="525.09" y="296.94" width="7.77" height="15.53"></rect>
        </g>
      </g>
      <g>
        <rect class="cls-3" x="461.75" y="322.91" width="7.77" height="15.53"></rect>
        <rect class="cls-3" x="482.86" y="323.15" width="7.77" height="15.53"></rect>
        <rect class="cls-3" x="503.98" y="322.91" width="7.77" height="15.53"></rect>
        <rect class="cls-3" x="525.09" y="323.15" width="7.77" height="15.53"></rect>
      </g>
      <g>
        <rect class="cls-3" x="461.75" y="351.54" width="7.77" height="15.53"></rect>
        <rect class="cls-3" x="482.86" y="351.78" width="7.77" height="15.53"></rect>
        <rect class="cls-3" x="503.98" y="351.54" width="7.77" height="15.53"></rect>
        <rect class="cls-3" x="525.09" y="351.78" width="7.77" height="15.53"></rect>
      </g>
      <g>
        <rect class="cls-3" x="461.75" y="380.18" width="7.77" height="15.53"></rect>
        <rect class="cls-3" x="482.86" y="380.42" width="7.77" height="15.53"></rect>
        <rect class="cls-3" x="503.98" y="380.18" width="7.77" height="15.53"></rect>
        <rect class="cls-3" x="525.09" y="380.42" width="7.77" height="15.53"></rect>
      </g>
      <g>
        <rect class="cls-3" x="461.75" y="408.81" width="7.77" height="15.53"></rect>
        <rect class="cls-3" x="482.86" y="409.06" width="7.77" height="15.53"></rect>
        <rect class="cls-3" x="503.98" y="408.81" width="7.77" height="15.53"></rect>
        <rect class="cls-3" x="525.09" y="409.06" width="7.77" height="15.53"></rect>
      </g>
      <g>
        <rect class="cls-3" x="461.75" y="437.45" width="7.77" height="15.53"></rect>
        <rect class="cls-3" x="482.86" y="437.69" width="7.77" height="15.53"></rect>
        <rect class="cls-3" x="503.98" y="437.45" width="7.77" height="15.53"></rect>
        <rect class="cls-3" x="525.09" y="437.69" width="7.77" height="15.53"></rect>
      </g>
      <g>
        <rect class="cls-1" x="6.24" y="161.52" width="96.59" height="329.07"></rect>
        <g>
          <rect class="cls-3" x="15.7" y="175.36" width="7.77" height="15.53"></rect>
          <rect class="cls-3" x="36.82" y="175.6" width="7.77" height="15.53"></rect>
          <rect class="cls-3" x="57.93" y="175.36" width="7.77" height="15.53"></rect>
          <rect class="cls-3" x="79.04" y="175.6" width="7.77" height="15.53"></rect>
        </g>
        <g>
          <rect class="cls-3" x="15.7" y="203.99" width="7.77" height="15.53"></rect>
          <rect class="cls-3" x="36.82" y="204.23" width="7.77" height="15.53"></rect>
          <rect class="cls-3" x="57.93" y="203.99" width="7.77" height="15.53"></rect>
          <rect class="cls-3" x="79.04" y="204.23" width="7.77" height="15.53"></rect>
        </g>
        <g>
          <rect class="cls-3" x="15.7" y="232.63" width="7.77" height="15.53"></rect>
          <rect class="cls-3" x="36.82" y="232.87" width="7.77" height="15.53"></rect>
          <rect class="cls-3" x="57.93" y="232.63" width="7.77" height="15.53"></rect>
          <rect class="cls-3" x="79.04" y="232.87" width="7.77" height="15.53"></rect>
        </g>
        <g>
          <rect class="cls-3" x="15.7" y="261.26" width="7.77" height="15.53"></rect>
          <rect class="cls-3" x="36.82" y="261.51" width="7.77" height="15.53"></rect>
          <rect class="cls-3" x="57.93" y="261.26" width="7.77" height="15.53"></rect>
          <rect class="cls-3" x="79.04" y="261.51" width="7.77" height="15.53"></rect>
        </g>
        <g>
          <rect class="cls-3" x="15.7" y="287.47" width="7.77" height="15.53"></rect>
          <rect class="cls-3" x="36.82" y="287.72" width="7.77" height="15.53"></rect>
          <rect class="cls-3" x="57.93" y="287.47" width="7.77" height="15.53"></rect>
          <rect class="cls-3" x="79.04" y="287.72" width="7.77" height="15.53"></rect>
        </g>
        <g>
          <rect class="cls-3" x="15.7" y="316.11" width="7.77" height="15.53"></rect>
          <rect class="cls-3" x="36.82" y="316.35" width="7.77" height="15.53"></rect>
          <rect class="cls-3" x="57.93" y="316.11" width="7.77" height="15.53"></rect>
          <rect class="cls-3" x="79.04" y="316.35" width="7.77" height="15.53"></rect>
        </g>
        <g>
          <rect class="cls-3" x="15.7" y="344.75" width="7.77" height="15.53"></rect>
          <rect class="cls-3" x="36.82" y="344.99" width="7.77" height="15.53"></rect>
          <rect class="cls-3" x="57.93" y="344.75" width="7.77" height="15.53"></rect>
          <rect class="cls-3" x="79.04" y="344.99" width="7.77" height="15.53"></rect>
        </g>
        <g>
          <rect class="cls-3" x="15.7" y="373.38" width="7.77" height="15.53"></rect>
          <rect class="cls-3" x="36.82" y="373.63" width="7.77" height="15.53"></rect>
          <rect class="cls-3" x="57.93" y="373.38" width="7.77" height="15.53"></rect>
          <rect class="cls-3" x="79.04" y="373.63" width="7.77" height="15.53"></rect>
        </g>
        <g>
          <rect class="cls-3" x="15.7" y="402.02" width="7.77" height="15.53"></rect>
          <rect class="cls-3" x="36.82" y="402.26" width="7.77" height="15.53"></rect>
          <rect class="cls-3" x="57.93" y="402.02" width="7.77" height="15.53"></rect>
          <rect class="cls-3" x="79.04" y="402.26" width="7.77" height="15.53"></rect>
        </g>
        <g>
          <rect class="cls-3" x="15.7" y="430.66" width="7.77" height="15.53"></rect>
          <rect class="cls-3" x="36.82" y="430.9" width="7.77" height="15.53"></rect>
          <rect class="cls-3" x="57.93" y="430.66" width="7.77" height="15.53"></rect>
          <rect class="cls-3" x="79.04" y="430.9" width="7.77" height="15.53"></rect>
        </g>
        <g>
          <rect class="cls-3" x="15.7" y="459.29" width="7.77" height="15.53"></rect>
          <rect class="cls-3" x="36.82" y="459.53" width="7.77" height="15.53"></rect>
          <rect class="cls-3" x="57.93" y="459.29" width="7.77" height="15.53"></rect>
          <rect class="cls-3" x="79.04" y="459.53" width="7.77" height="15.53"></rect>
        </g>
      </g>
      <g>
        <polygon class="cls-1" points="172.23 101.82 172.23 96 110.59 96 110.59 101.82 102.83 101.82 102.83 490.6 180.97 490.6 180.97 101.82 172.23 101.82"></polygon>
        <rect class="cls-3" x="110.59" y="113.47" width="2.43" height="361.59"></rect>
        <rect class="cls-3" x="117.99" y="113.47" width="2.43" height="361.59"></rect>
        <rect class="cls-3" x="132.8" y="113.47" width="2.43" height="361.59"></rect>
        <rect class="cls-3" x="147.6" y="113.47" width="2.43" height="361.59"></rect>
        <rect class="cls-3" x="125.39" y="113.47" width="2.43" height="361.59"></rect>
        <rect class="cls-3" x="140.2" y="113.47" width="2.43" height="361.59"></rect>
        <rect class="cls-3" x="155" y="113.47" width="2.43" height="361.59"></rect>
        <rect class="cls-3" x="162.4" y="113.47" width="2.43" height="361.59"></rect>
        <rect class="cls-3" x="169.8" y="113.47" width="2.43" height="361.59"></rect>
      </g>
      <g>
        <polygon class="cls-1" points="442.09 161.52 442.09 136.94 432.87 136.94 432.87 109.59 421 109.59 414.4 81.51 405.63 44.21 396.86 81.51 390.27 109.59 378.02 109.59 378.02 136.94 368.8 136.94 368.8 161.52 357.15 161.52 357.15 490.6 453.74 490.6 453.74 161.52 442.09 161.52"></polygon>
        <rect class="cls-3" x="364.92" y="172.2" width="2.43" height="361.59"></rect>
        <rect class="cls-3" x="371.51" y="172.2" width="2.43" height="361.59"></rect>
        <rect class="cls-3" x="384.7" y="172.2" width="2.43" height="361.59"></rect>
        <rect class="cls-3" x="397.88" y="172.2" width="2.43" height="361.59"></rect>
        <rect class="cls-3" x="378.11" y="172.2" width="2.43" height="361.59"></rect>
        <rect class="cls-3" x="391.29" y="172.2" width="2.43" height="361.59"></rect>
        <rect class="cls-3" x="404.48" y="172.2" width="2.43" height="361.59"></rect>
        <rect class="cls-3" x="411.07" y="172.2" width="2.43" height="361.59"></rect>
        <rect class="cls-3" x="424.26" y="172.2" width="2.43" height="361.59"></rect>
        <rect class="cls-3" x="417.66" y="172.2" width="2.43" height="361.59"></rect>
        <rect class="cls-3" x="430.85" y="172.2" width="2.43" height="361.59"></rect>
        <rect class="cls-3" x="437.44" y="172.2" width="2.43" height="361.59"></rect>
        <rect class="cls-3" x="444.03" y="172.2" width="2.43" height="361.59"></rect>
      </g>
      <g>
        <polygon class="cls-1" points="261.05 203.75 261.05 178.03 255.71 178.03 255.71 172.2 247.46 172.2 247.46 178.03 237.76 178.03 237.76 172.2 235.81 172.2 229.5 172.2 227.56 172.2 227.56 178.03 216.4 178.03 216.4 172.2 208.15 172.2 208.15 178.03 201.84 178.03 201.84 203.75 172.23 203.75 172.23 510.01 290.17 510.01 290.17 203.75 261.05 203.75"></polygon>
        <rect class="cls-3" x="180.73" y="219.52" width="19.41" height="9.22"></rect>
        <rect class="cls-3" x="206.69" y="219.77" width="19.41" height="9.22"></rect>
        <rect class="cls-3" x="236.54" y="219.52" width="19.41" height="9.22"></rect>
        <rect class="cls-3" x="262.51" y="219.77" width="19.41" height="9.22"></rect>
        <rect class="cls-3" x="180.73" y="243.31" width="19.41" height="9.22"></rect>
        <rect class="cls-3" x="206.69" y="243.55" width="19.41" height="9.22"></rect>
        <rect class="cls-3" x="236.54" y="243.31" width="19.41" height="9.22"></rect>
        <rect class="cls-3" x="262.51" y="243.55" width="19.41" height="9.22"></rect>
        <rect class="cls-3" x="180.73" y="267.57" width="19.41" height="9.22"></rect>
        <rect class="cls-3" x="206.69" y="267.82" width="19.41" height="9.22"></rect>
        <rect class="cls-3" x="236.54" y="267.57" width="19.41" height="9.22"></rect>
        <rect class="cls-3" x="262.51" y="267.82" width="19.41" height="9.22"></rect>
        <rect class="cls-3" x="180.73" y="291.36" width="19.41" height="9.22"></rect>
        <rect class="cls-3" x="206.69" y="291.6" width="19.41" height="9.22"></rect>
        <rect class="cls-3" x="236.54" y="291.36" width="19.41" height="9.22"></rect>
        <rect class="cls-3" x="262.51" y="291.6" width="19.41" height="9.22"></rect>
        <rect class="cls-3" x="180.73" y="315.62" width="19.41" height="9.22"></rect>
        <rect class="cls-3" x="206.69" y="315.87" width="19.41" height="9.22"></rect>
        <rect class="cls-3" x="236.54" y="315.62" width="19.41" height="9.22"></rect>
        <rect class="cls-3" x="262.51" y="315.87" width="19.41" height="9.22"></rect>
        <rect class="cls-3" x="180.73" y="339.41" width="19.41" height="9.22"></rect>
        <rect class="cls-3" x="206.69" y="339.65" width="19.41" height="9.22"></rect>
        <rect class="cls-3" x="236.54" y="339.41" width="19.41" height="9.22"></rect>
        <rect class="cls-3" x="262.51" y="339.65" width="19.41" height="9.22"></rect>
        <rect class="cls-3" x="180.73" y="363.68" width="19.41" height="9.22"></rect>
        <rect class="cls-3" x="206.69" y="363.92" width="19.41" height="9.22"></rect>
        <rect class="cls-3" x="236.54" y="363.68" width="19.41" height="9.22"></rect>
        <rect class="cls-3" x="262.51" y="363.92" width="19.41" height="9.22"></rect>
        <rect class="cls-3" x="180.73" y="387.46" width="19.41" height="9.22"></rect>
        <rect class="cls-3" x="206.69" y="387.7" width="19.41" height="9.22"></rect>
        <rect class="cls-3" x="236.54" y="387.46" width="19.41" height="9.22"></rect>
        <rect class="cls-3" x="262.51" y="387.7" width="19.41" height="9.22"></rect>
        <rect class="cls-3" x="180.73" y="411.73" width="19.41" height="9.22"></rect>
        <rect class="cls-3" x="206.69" y="411.97" width="19.41" height="9.22"></rect>
        <rect class="cls-3" x="236.54" y="411.73" width="19.41" height="9.22"></rect>
        <rect class="cls-3" x="262.51" y="411.97" width="19.41" height="9.22"></rect>
        <rect class="cls-3" x="180.73" y="435.51" width="19.41" height="9.22"></rect>
        <rect class="cls-3" x="206.69" y="435.75" width="19.41" height="9.22"></rect>
        <rect class="cls-3" x="236.54" y="435.51" width="19.41" height="9.22"></rect>
        <rect class="cls-3" x="262.51" y="435.75" width="19.41" height="9.22"></rect>
        <rect class="cls-3" x="180.73" y="459.78" width="19.41" height="9.22"></rect>
        <rect class="cls-3" x="206.69" y="460.02" width="19.41" height="9.22"></rect>
        <rect class="cls-3" x="236.54" y="459.78" width="19.41" height="9.22"></rect>
        <rect class="cls-3" x="262.51" y="460.02" width="19.41" height="9.22"></rect>
      </g>
    </g>
  </g>
</svg>
