<?xml version="1.0" encoding="UTF-8"?>
<svg xmlns="http://www.w3.org/2000/svg" viewBox="0 0 413.73 208.25">
  <defs>
    <style>
      .cls-1 {
        fill: #5a3f4b;
      }

      .cls-2 {
        fill: #195a74;
      }

      .cls-3 {
        fill: #f75231;
      }

      .cls-4 {
        fill: #5ab04a;
      }

      .cls-5 {
        fill: #fff;
      }

      .cls-6 {
        fill: #3984fe;
      }

      .cls-7 {
        fill: #f0f0f1;
      }

      .cls-7, .cls-8 {
        mix-blend-mode: multiply;
      }

      .cls-9 {
        fill: #fecf65;
      }

      .cls-10 {
        fill: #377a29;
      }

      .cls-11 {
        fill: #003e51;
      }

      .cls-12 {
        isolation: isolate;
      }

      .cls-8 {
        fill: #d0d1d3;
      }

      .cls-13 {
        fill: #6d6e71;
      }

      .cls-14 {
        fill: #808183;
      }

      .cls-15 {
        fill: #813f3b;
      }

      .cls-16 {
        fill: #ea712a;
      }

      .cls-17 {
        fill: #f7f7f7;
      }

      .cls-18 {
        fill: #59595b;
      }

      .cls-19 {
        fill: #ffbb12;
      }

      .cls-20 {
        fill: #00455b;
      }

      .cls-21 {
        fill: #97de7e;
      }

      .cls-22 {
        fill: #347aee;
      }

      .cls-23 {
        fill: #2a9950;
      }

      .cls-24 {
        fill: #f7a56b;
      }

      .cls-25 {
        fill: #4c212e;
      }

      .cls-26 {
        fill: #414042;
      }

      .cls-27 {
        fill: #cfcfcf;
      }

      .cls-28 {
        fill: #ea5a1f;
      }
    </style>
  </defs>
  <g class="cls-12">
    <g id="Layer_1">
      <path class="cls-27" d="M333.64,28.8c.43,0,.78-.35.78-.78l1.22-2.53c0-.43-1.57-.78-2-.78l-79.84-.46-1.24,3.77c0,.43.35.78.78.78h6.79v30.7h-6.35l-1.22,3.31c0,.43.35.78.78.78h6.79v30.7h-6.59l-.98,3.31c0,.43.35.78.78.78h80.3c.43,0,.78-.35.78-.78v-2.53c0-.43-.35-.78-.78-.78h-6.79v-30.7h6.79c.43,0,.78-.35.78-.78l.98-3.31h-8.55v-30.7h6.79ZM263.4,28.8h28.45v30.7h-28.45v-30.7ZM323.57,94.29h-60.17v-30.7h60.17v30.7ZM323.57,59.5h-28.45v-30.7h28.45v30.7Z"></path>
      <g>
        <path class="cls-24" d="M55.96,186.53H6.66c-.86,0-1.55-.69-1.55-1.55v-64.43c0-.97.79-1.76,1.76-1.76h48.89c.97,0,1.76.79,1.76,1.76v64.43c0,.86-.7,1.55-1.55,1.55Z"></path>
        <rect class="cls-17" x="5.11" y="135.85" width="52.41" height="12.86"></rect>
        <rect class="cls-17" x="5.11" y="149.85" width="52.41" height="12.86"></rect>
        <rect class="cls-17" x="5.11" y="164" width="52.41" height="19.61"></rect>
        <rect class="cls-17" x="5.11" y="121.85" width="52.41" height="12.86"></rect>
        <path class="cls-23" d="M39.16,168.67c0,.69-.56,1.26-1.26,1.26h-13.79c-.69,0-1.26-.56-1.26-1.26s.56-1.26,1.26-1.26h13.79c.69,0,1.26.56,1.26,1.26Z"></path>
        <path class="cls-19" d="M22.86,153.36c0-.69.56-1.26,1.26-1.26h13.79c.69,0,1.26.56,1.26,1.26s-.56,1.26-1.26,1.26h-13.79c-.69,0-1.26-.56-1.26-1.26Z"></path>
        <path class="cls-3" d="M39.16,125.63c0,.69-.56,1.26-1.26,1.26h-13.79c-.69,0-1.26-.56-1.26-1.26s.56-1.26,1.26-1.26h13.79c.69,0,1.26.56,1.26,1.26Z"></path>
        <path class="cls-22" d="M39.16,139.99c0,.69-.56,1.26-1.26,1.26h-13.79c-.69,0-1.26-.56-1.26-1.26s.56-1.26,1.26-1.26h13.79c.69,0,1.26.56,1.26,1.26Z"></path>
      </g>
      <g>
        <rect class="cls-27" x="83.92" y="104.58" width="270.64" height="22.51"></rect>
        <rect class="cls-5" x="71.45" y="97.16" width="294.71" height="7.37" rx="1.46" ry="1.46"></rect>
        <path class="cls-5" d="M77.93,104.55h4.91v80.05c0,1-.81,1.82-1.82,1.82h-1.28c-1,0-1.82-.81-1.82-1.82v-80.05h0Z"></path>
        <path class="cls-5" d="M354.56,104.55h4.91v80.05c0,1-.81,1.82-1.82,1.82h-1.28c-1,0-1.82-.81-1.82-1.82v-80.05h0Z"></path>
        <path class="cls-24" d="M226.12,120.93h55.67c1.02,0,1.84.83,1.84,1.84v62.03c0,.9-.73,1.62-1.62,1.62h-56.11c-.9,0-1.62-.73-1.62-1.62v-62.03c0-1.02.83-1.84,1.84-1.84Z"></path>
        <rect class="cls-5" x="251.49" y="104.55" width="4.91" height="16.37"></rect>
        <rect class="cls-17" x="224.27" y="164.3" width="59.35" height="19.26"></rect>
        <path class="cls-23" d="M260.62,175.14h-13.33c-.67,0-1.21-.54-1.21-1.21h0c0-.67.54-1.21,1.21-1.21h13.33c.67,0,1.21.54,1.21,1.21h0c0,.67-.54,1.21-1.21,1.21Z"></path>
        <rect class="cls-17" x="224.27" y="143.83" width="59.35" height="19.26"></rect>
        <path class="cls-19" d="M260.62,154.68h-13.33c-.67,0-1.21-.54-1.21-1.21h0c0-.67.54-1.21,1.21-1.21h13.33c.67,0,1.21.54,1.21,1.21h0c0,.67-.54,1.21-1.21,1.21Z"></path>
        <rect class="cls-17" x="224.27" y="123.36" width="59.35" height="19.26"></rect>
        <path class="cls-22" d="M260.62,134.21h-13.33c-.67,0-1.21-.54-1.21-1.22h0c0-.67.54-1.21,1.21-1.21h13.33c.67,0,1.21.54,1.21,1.21h0c0,.67-.54,1.22-1.21,1.22Z"></path>
      </g>
      <g>
        <polygon class="cls-28" points="230.84 97.13 228.94 79.48 243.45 79.48 241.55 97.13 230.84 97.13"></polygon>
        <path class="cls-28" d="M242.43,89.04c1.58.17,3.03-1.1,3.22-2.84.2-1.75-.92-3.3-2.5-3.47l.22-1.96c2.56.28,4.38,2.8,4.05,5.63-.32,2.83-2.66,4.89-5.22,4.61l.22-1.96Z"></path>
        <path class="cls-5" d="M233.53,76.83s-.03,0-.09-.01c-.05-.01-.14-.02-.23-.05-.1-.02-.22-.06-.35-.11-.13-.06-.28-.12-.43-.23-.15-.1-.32-.22-.47-.4-.15-.18-.3-.41-.38-.71-.08-.29-.08-.63,0-.91.06-.29.18-.53.29-.74.12-.2.23-.39.34-.55.11-.16.22-.31.32-.45.1-.14.2-.27.28-.4.09-.13.17-.25.24-.38.07-.12.14-.24.19-.35.06-.11.11-.22.15-.3.08-.18.13-.29.13-.29,0,0,.02.02.05.07.03.05.08.12.13.21.04.09.11.21.14.35.04.14.08.31.09.49.01.18.01.39-.02.59-.03.21-.08.42-.15.63-.07.21-.16.41-.26.6-.09.19-.2.36-.28.52-.09.16-.16.29-.2.4-.04.11-.07.18-.09.27-.02.09,0,.21.02.34.01.06.03.13.06.2.02.07.05.13.08.2.05.14.11.26.16.38.06.11.09.23.14.32.05.09.07.17.1.22.02.05.03.08.03.08Z"></path>
        <path class="cls-5" d="M238.62,76.83s-.04,0-.12-.02c-.08-.02-.2-.03-.34-.07-.14-.06-.34-.11-.53-.22-.2-.11-.42-.25-.62-.48-.21-.22-.38-.54-.46-.9-.09-.36-.08-.75-.02-1.11.06-.36.17-.71.31-1.03.13-.32.29-.63.44-.92.16-.29.32-.57.47-.83.15-.27.3-.52.43-.76.12-.24.24-.48.33-.7.05-.11.08-.22.12-.33.02-.1.06-.21.08-.31.04-.2.06-.4.05-.58,0-.09,0-.18-.01-.26-.01-.08-.02-.16-.03-.23-.02-.14-.05-.25-.07-.33-.02-.08-.03-.12-.03-.12,0,0,.04.02.1.07.06.05.17.12.27.23.05.06.11.12.17.2.06.07.11.17.17.26.12.2.21.44.27.72.04.14.04.29.06.45,0,.15,0,.32,0,.47-.02.33-.1.65-.19.98-.1.32-.22.64-.37.94-.14.3-.3.6-.44.88-.15.27-.29.54-.44.81-.06.13-.13.25-.19.38-.05.12-.11.24-.15.35-.08.23-.15.44-.16.63-.01.19,0,.38.06.56.05.18.15.36.25.52.04.08.1.15.15.22.05.07.1.13.14.19.2.22.3.36.3.36Z"></path>
      </g>
      <g>
        <path class="cls-6" d="M98.45,91.28h-20.31c-1.13,0-2.05.92-2.05,2.05v3.84h28.24c0-3.25-2.64-5.89-5.89-5.89Z"></path>
        <rect class="cls-6" x="79.78" y="86.98" width="1.84" height="4.3"></rect>
        <rect class="cls-5" x="68.95" y="18.42" width="40.05" height="1.33" transform="translate(3.78 51.07) rotate(-32.69)"></rect>
        <rect class="cls-5" x="75.61" y="31.93" width="1.33" height="56.08" transform="translate(-8.68 13.1) rotate(-9.29)"></rect>
        <rect class="cls-5" x="72.7" y="19.23" width="39.39" height="1.33" transform="translate(3.95 53.21) rotate(-32.79)"></rect>
        <rect class="cls-5" x="79.72" y="31.93" width="1.33" height="56.08" transform="translate(-8.62 13.76) rotate(-9.29)"></rect>
        <path class="cls-3" d="M78.96,30.27l-.6,3.91c-.12.79-.82,1.35-1.61,1.31l-5.37-.29c-.91-.05-1.58-.88-1.44-1.78l.77-4.97c.14-.9,1.03-1.49,1.91-1.26l5.21,1.35c.77.2,1.26.95,1.14,1.73Z"></path>
        <path class="cls-6" d="M109.01,4.73l1.13.9c.37.3.49.82.29,1.25l-1.58,3.27c-.28.59-1.04.76-1.56.36l-2.38-1.89c-.51-.41-.52-1.19,0-1.6l2.83-2.29c.37-.3.9-.3,1.28,0Z"></path>
        <g>
          <path class="cls-6" d="M161.54,5.88h-33.56v.82h-12.23v-3.12c0-.76.62-1.38,1.38-1.38h43.29c1.33,0,2.4,1.08,2.4,2.4h0c0,.71-.57,1.28-1.28,1.28Z"></path>
          <rect class="cls-6" x="112.93" y="4.04" width="2.81" height="1.84"></rect>
          <polygon class="cls-6" points="121.22 .82 118.76 0 118.76 2.2 121.22 2.2 121.22 .82"></polygon>
          <rect class="cls-6" x="121.22" y=".82" width="2.46" height="1.38"></rect>
          <rect class="cls-6" x="108.99" y="4.3" width="4.61" height="1.33"></rect>
        </g>
        <path class="cls-6" d="M85.18,89.54h-5.41v-2.9c0-.82.78-1.42,1.57-1.21l3.39.88c.94.25,1.6,1.1,1.6,2.08h0c0,.64-.52,1.15-1.15,1.15Z"></path>
      </g>
      <path class="cls-5" d="M211.1,92.97h-3.07c-2.48,0-4.49,1.27-4.49,2.83v1.25h12.06v-1.25c0-1.56-2.01-2.83-4.49-2.83Z"></path>
      <path class="cls-3" d="M412.94,145.44h-33.12c-.43,0-.79.35-.79.78s.35.79.79.79h.37l.61,5.27,2.21,19.12,1.08,9.32c.37,3.22,3.1,5.65,6.34,5.65h11.9c3.24,0,5.96-2.43,6.34-5.65l1.08-9.32,2.22-19.12.61-5.27h.37c.44,0,.79-.35.79-.79s-.35-.78-.79-.78ZM388.17,164.86l-2.07,2.15-1.99-2.07,2.07-2.15,1.99,2.07ZM384.19,158.84l1.99-2.07,1.99,2.07-1.99,2.07-1.99-2.07ZM387.09,161.85l1.99-2.07,1.99,2.07-1.99,2.07-1.99-2.07ZM389.98,158.84l1.99-2.07,1.99,2.07-1.99,2.07-1.99-2.07ZM391.97,162.79l1.99,2.07-1.99,2.06-1.99-2.06,1.99-2.07ZM392.88,161.85l1.99-2.07,1.99,2.07-1.99,2.06-1.99-2.06ZM395.78,158.84l1.99-2.07,1.99,2.07-1.99,2.07-1.99-2.07ZM397.77,162.79l1.99,2.07-1.99,2.06-1.99-2.06,1.99-2.07ZM398.67,161.85l1.99-2.07,1.99,2.07-1.99,2.07-1.99-2.07ZM401.57,158.84l1.99-2.07,1.99,2.07-1.99,2.07-1.99-2.07ZM403.56,162.79l1.99,2.07-1.99,2.06-1.99-2.06,1.99-2.07ZM404.47,161.85l1.99-2.07,1.99,2.07-1.99,2.07-1.99-2.07ZM404.47,155.83l1.99-2.07,1.99,2.07-1.99,2.07-1.99-2.07ZM404.78,153.62l-1.22,1.26-1.22-1.26h2.44ZM402.65,155.83l-1.99,2.07-1.99-2.07,1.99-2.07,1.99,2.07ZM398.99,153.62l-1.22,1.26-1.22-1.26h2.44ZM396.86,155.83l-1.99,2.07-1.99-2.07,1.99-2.07,1.99,2.07ZM393.19,153.62l-1.22,1.26-1.22-1.26h2.44ZM391.07,155.83l-1.99,2.07-1.99-2.07,1.99-2.07,1.99,2.07ZM387.4,153.62l-1.22,1.26-1.22-1.26h2.44ZM382.73,157.32l-.31-2.66.86-.9,1.99,2.07-1.99,2.07-.55-.58ZM383.04,160.03l.24-.25,1.99,2.07-1.8,1.87-.43-3.69ZM384.09,169.09l-.3-2.6,1.4,1.45-1.1,1.14ZM384.84,170.21l1.26-1.31,1.26,1.31h-2.52ZM388.99,170.02l-1.99-2.07,2.07-2.15,1.99,2.06-2.07,2.15ZM390.63,170.21l1.34-1.4,1.34,1.4h-2.69ZM392.88,167.87l1.99-2.06,1.99,2.06-1.99,2.07-1.99-2.07ZM396.42,170.21l1.34-1.4,1.35,1.4h-2.69ZM398.67,167.87l1.99-2.06,1.99,2.06-1.99,2.07-1.99-2.07ZM402.22,170.21l1.34-1.4,1.34,1.4h-2.69ZM406.46,169.93l-1.99-2.07,1.99-2.06,1.99,2.07-1.99,2.07ZM408.55,170.21h-.54l.61-.63-.08.63ZM408.97,166.53l-1.61-1.67,1.99-2.07.05.05-.43,3.69ZM409.66,160.59l-.31.32-1.99-2.07,1.99-2.07.67.69-.36,3.12ZM410.45,153.74l-1.1,1.14-1.22-1.26h2.33l-.02.12Z"></path>
      <g>
        <path class="cls-23" d="M3.95,10.37h25.82c.22,0,.39.17.39.39v3.31c0,.22-.18.39-.39.39H3.95c-.22,0-.39-.18-.39-.39v-3.31c0-.22.18-.39.39-.39Z" transform="translate(-4.06 11.64) rotate(-34.24)"></path>
        <g>
          <rect class="cls-4" x="24.11" y="4.98" width="1.33" height="4.09" transform="translate(.34 15.15) rotate(-34.23)"></rect>
          <rect class="cls-4" x="8.29" y="15.75" width="1.33" height="4.09" transform="translate(-8.46 8.12) rotate(-34.23)"></rect>
        </g>
        <rect class="cls-9" x="34.81" y="-.71" width="6.14" height="26.61" rx=".39" ry=".39" transform="translate(50.48 -25.29) rotate(90)"></rect>
        <g>
          <rect class="cls-15" x="48.65" y="9.53" width="1.33" height="6.14"></rect>
          <rect class="cls-15" x="25.78" y="9.53" width="1.33" height="6.14"></rect>
        </g>
        <rect class="cls-15" x="29.04" y="11.93" width="14.12" height="1.33"></rect>
        <rect class="cls-23" x="35.02" y="5.27" width="5.73" height="26.61" rx=".39" ry=".39" transform="translate(56.46 -19.31) rotate(90)"></rect>
        <g>
          <rect class="cls-10" x="46.79" y="15.71" width="1.33" height="5.73"></rect>
          <rect class="cls-10" x="27.65" y="15.71" width="1.33" height="5.73"></rect>
        </g>
        <rect class="cls-10" x="29.75" y="16.68" width="16.27" height="1.33"></rect>
        <rect class="cls-10" x="29.75" y="18.95" width="16.27" height="1.33"></rect>
        <path class="cls-27" d="M58.42,22.21l-56.71-.24-1.71,4.18c0,.34.27.61.61.61h56.17c.34,0,.61-.61.61-.61l1.02-3.93Z"></path>
        <rect class="cls-5" x="1.22" y="21.44" width="57.4" height="4.09" rx=".61" ry=".61"></rect>
      </g>
      <g>
        <path class="cls-5" d="M254.56,93.07h80.3c.43,0,.78.35.78.78v2.53c0,.43-.35.78-.78.78h-80.3c-.43,0-.78-.35-.78-.78v-2.53c0-.43.35-.78.78-.78Z"></path>
        <rect class="cls-5" x="253.78" y="58.28" width="81.86" height="4.09" rx=".78" ry=".78"></rect>
        <g>
          <rect class="cls-5" x="261.35" y="62.37" width="3.28" height="30.7"></rect>
          <rect class="cls-5" x="324.79" y="62.37" width="3.27" height="30.7"></rect>
        </g>
        <rect class="cls-5" x="253.78" y="23.49" width="81.86" height="4.09" rx=".78" ry=".78"></rect>
        <g>
          <rect class="cls-5" x="261.35" y="27.58" width="3.28" height="30.7"></rect>
          <rect class="cls-5" x="324.79" y="27.58" width="3.27" height="30.7"></rect>
        </g>
        <rect class="cls-5" x="293.07" y="27.58" width="3.27" height="30.7"></rect>
      </g>
      <g>
        <path class="cls-1" d="M296.19,78.38h25.65c.27,0,.48.22.48.48v2.31c0,.27-.22.48-.48.48h-25.64c-.27,0-.48-.22-.48-.48v-2.31c0-.27.22-.48.48-.48Z" transform="translate(135.46 347.92) rotate(-71.58)"></path>
        <g>
          <rect class="cls-25" x="311.37" y="69.25" width="1.33" height="3.27" transform="translate(146.18 344.54) rotate(-71.58)"></rect>
          <rect class="cls-25" x="305.32" y="87.41" width="1.33" height="3.27" transform="translate(124.73 351.16) rotate(-71.56)"></rect>
        </g>
      </g>
      <g>
        <path class="cls-23" d="M301.99,76.45h25.64c.27,0,.48.22.48.48v5.18c0,.27-.22.48-.48.48h-25.64c-.26,0-.48-.22-.48-.48v-5.18c0-.27.22-.48.48-.48Z" transform="translate(152.53 360.76) rotate(-74.19)"></path>
        <rect class="cls-21" x="311.07" y="84.87" width="3.38" height="3.68" transform="translate(144.12 364.02) rotate(-74.19)"></rect>
        <g>
          <rect class="cls-10" x="317.26" y="65.4" width="1.33" height="6.14" transform="translate(165.46 355.72) rotate(-74.2)"></rect>
          <rect class="cls-10" x="311.03" y="87.4" width="1.33" height="6.14" transform="translate(139.8 365.77) rotate(-74.2)"></rect>
        </g>
        <rect class="cls-10" x="308.11" y="76.17" width="12.79" height="1.33" transform="translate(154.8 358.47) rotate(-74.17)"></rect>
        <rect class="cls-10" x="311.74" y="79.33" width="7.16" height="1.33" transform="translate(152.6 361.68) rotate(-74.22)"></rect>
      </g>
      <g>
        <rect class="cls-28" x="307.25" y="78.16" width="26.61" height="3.27" rx=".48" ry=".48" transform="translate(177.71 377.66) rotate(-78.36)"></rect>
        <g>
          <rect class="cls-15" x="321.82" y="68.74" width="1.33" height="3.27" transform="translate(188.53 372.04) rotate(-78.37)"></rect>
          <rect class="cls-15" x="317.96" y="87.48" width="1.33" height="3.27" transform="translate(167.07 383.21) rotate(-78.36)"></rect>
        </g>
        <rect class="cls-15" x="313.08" y="79.08" width="14.94" height="1.33" transform="translate(177.83 377.64) rotate(-78.37)"></rect>
      </g>
      <g>
        <rect class="cls-28" x="279.63" y="70.89" width="6.14" height="26.61" rx=".34" ry=".34" transform="translate(366.9 -198.5) rotate(90)"></rect>
        <g>
          <rect class="cls-15" x="293.47" y="81.13" width="1.33" height="6.14"></rect>
          <rect class="cls-15" x="270.6" y="81.13" width="1.33" height="6.14"></rect>
        </g>
        <rect class="cls-15" x="274.52" y="83.53" width="12.79" height="1.33"></rect>
      </g>
      <g>
        <path class="cls-1" d="M269.74,87.27h25.91c.19,0,.35.16.35.35v5.04c0,.19-.15.34-.34.34h-25.92c-.19,0-.34-.15-.34-.34v-5.04c0-.19.15-.34.34-.34Z"></path>
        <g>
          <rect class="cls-25" x="291.6" y="87.27" width="1.33" height="5.73"></rect>
          <rect class="cls-25" x="272.47" y="87.27" width="1.33" height="5.73"></rect>
        </g>
        <rect class="cls-25" x="275.23" y="88.24" width="14.94" height="1.33"></rect>
        <rect class="cls-25" x="275.23" y="90.51" width="14.94" height="1.33"></rect>
      </g>
      <g>
        <g>
          <path class="cls-11" d="M127.52,115.01c-.11-1.12-.28-2.16-.51-3.15,2.06-.13,4.19-.14,6.39.02,17.59,1.26,16.17,14.86,16.17,14.86.26,0-3.64.34-5.02-.1-7.24-3.45-12.01-4.51-17.27-4.82.36-2.26.45-4.61.23-6.81Z"></path>
          <path class="cls-20" d="M112.76,113.22c1.72-.43,3.56-.8,5.49-1.08,3.17-.44,6.57-.62,10.15-.36.02,0,.03,0,.05,0,17.54,1.28,16.12,14.85,16.12,14.85-9.48-3.53-17.71-4.85-24.49-5.03-2.01-.05-3.9,0-5.65.13l-1.67-8.52Z"></path>
        </g>
        <g>
          <g>
            <g>
              <g>
                <path class="cls-26" d="M115.5,180.74l5.22,2.97,25.92,12.56-1.82,2.68-35.88-10.85v-7.34c.17,0,6.38-.02,6.55-.03Z"></path>
                <g>
                  <circle class="cls-18" cx="143.95" cy="199.75" r="4.48" transform="translate(-99.08 160.29) rotate(-45)"></circle>
                  <path class="cls-13" d="M141.98,199.75c0,1.09.88,1.97,1.97,1.97s1.97-.88,1.97-1.97-.88-1.97-1.97-1.97-1.97.88-1.97,1.97Z"></path>
                </g>
              </g>
              <g>
                <path class="cls-26" d="M97.17,183.71l5.1-2.91c.21-.01,6.46-.03,6.67-.04v7.34l-35.88,10.85-1.82-2.68,25.92-12.56Z"></path>
                <g>
                  <circle class="cls-18" cx="74.07" cy="199.75" r="4.48" transform="translate(-138.82 191.74) rotate(-67.5)"></circle>
                  <path class="cls-13" d="M72.1,199.75c0,1.09.88,1.97,1.97,1.97s1.97-.88,1.97-1.97-.88-1.97-1.97-1.97-1.97.88-1.97,1.97Z"></path>
                </g>
              </g>
            </g>
            <g>
              <path class="cls-26" d="M112.58,180.61l-.26,1.74-1.72,21.64-1.58-.34-1.58.34-1.72-21.64-.21-1.36c2.36-.16,4.72-.31,7.08-.37Z"></path>
              <g>
                <circle class="cls-18" cx="109.01" cy="203.77" r="4.48"></circle>
                <path class="cls-13" d="M107.04,203.77c0,1.09.88,1.97,1.97,1.97s1.97-.88,1.97-1.97-.88-1.97-1.97-1.97-1.97.88-1.97,1.97Z"></path>
              </g>
            </g>
          </g>
          <rect class="cls-14" x="105.35" y="172.07" width="7.33" height="8.7" transform="translate(218.02 352.84) rotate(180)"></rect>
          <polygon class="cls-26" points="108.66 150.31 109.08 150.31 131.18 150.31 113.62 157.76 113.62 173.02 109.08 173.02 108.66 173.02 104.12 173.02 104.12 157.76 86.56 150.31 108.66 150.31"></polygon>
          <path class="cls-20" d="M86.56,151.93h61.88c6.75,0,7.34-1.21,8.93-4.87h-71.75l-3.37-2.17-3.79-2.44s-.41,9.48,8.11,9.48Z"></path>
          <path class="cls-20" d="M63.1,75.47l-2.33,1.84s-2.49-10.31,1.84-14.34c4.33-4.03,6.24-4.33,6.54-7.65.3-3.32-.18-9.38,7.61-9.38s-.56,26.61-.56,26.61l-13.1,2.92Z"></path>
          <path class="cls-20" d="M80.33,147.06c-.09-.09-.31-.87-.61-2.2l-.02-.02c-1.65-7.14-6.12-30.32-10.18-51.81,0,0-.02,0-.02-.02-1.08-5.7-2.13-11.28-3.09-16.41-1.13.25-2.25-4.29-3.38-4.05-.82.18-1.58,4.94-2.27,4.75.11.67.22,1.29.32,1.82.09.43.28,1.31.52,2.6,2.06,10.56,8.95,47.13,11.47,58.2,2.82,12.4,13.48,12.02,13.48,12.02,0,0-5.15-3.71-6.23-4.87Z"></path>
          <path class="cls-2" d="M122.82,140.78s-36.76,6.15-39.63,6.29c-1.45,0-2.58-.92-3.47-2.2v-.02c-1.95-2.82-2.66-7.33-2.66-7.33l-.96-4.44-10.81-50.02-.18-.8-.1-.45c-.01-.06-.01-.09-.01-.09l-1.84-8.49c-.45-5.35,1.25-9.01,6.49-12.27,5.06-3.16-.82-14.64,7.11-15.02,0,0,7.19.24,9.73.6,4.82.56,4.69,9.37,10.25,13.76.03.02.06.05.1.07.55.43,1.16.82,1.84,1.14,4.26,2.66,7.29,4.26,8.75,8.43,3.58,15.98,8.89,40.57,12.24,56.17.17.77.33,1.52.48,2.24.05.26.11.51.16.77,1.51,7.06,2.49,11.65,2.49,11.65Z"></path>
          <path class="cls-16" d="M84.28,123.99c-.6,3.24-4.66,6.67-8.19,9.09l-10.81-50.02-.18-.8-.1-.45c-.01-.06-.01-.09-.01-.09l-1.84-8.49c-.45-5.35,1.25-9.01,6.49-12.27,0,0,8.83,5.12,10.43,14.52,1.6,9.39,5.29,42.63,4.2,48.51Z"></path>
          <path class="cls-16" d="M120.32,129.13c-3.82-.92-7.77-2.4-9.38-4.78-3.52-5.19-13.99-38.63-16.41-48.31-1.6-6.42.62-12.37,2.31-15.66.55.43,1.16.82,1.84,1.14,4.26,2.66,7.29,4.26,8.75,8.43,3.58,15.98,8.89,40.57,12.24,56.17.17.77.33,1.52.48,2.24.05.26.11.51.16.77Z"></path>
          <path class="cls-7" d="M60.81,77.79c2.06,10.56,9.74,51.05,12.26,62.12,2.56,11.58,12.33,11.96,12.33,11.96,0,0-1.39-.09-2.31-1.56-.09-.09-.86-1.63-.74-3.26,2.87-.14,40.46-6.29,40.46-6.29,0,0-1.05-4.92-2.66-12.41-30.93-9.77-44.64-24.95-50.64-35.33,0,0-.02,0-.02-.02-2.61-4.5-3.76-8.11-4.21-9.95-.09-.32-.15-.6-.18-.81-.05-.21-.08-.35-.09-.44-.02-.06-1.02-4.76-1.02-4.76l-3.18.74Z"></path>
          <path class="cls-16" d="M82.36,147.06h75c0-7.56-2.18-9.73-8.93-9.73h-57.86c-6.98,0-8.23,4.69-8.34,7.56-.05,1.27.12,2.17.12,2.17Z"></path>
          <path class="cls-8" d="M86.56,151.93h31.34v-4.74s0-9.85-5.81-9.85h-21.51c-6.98,0-8.23,4.69-8.34,7.56l.12,2.17s-.33,5.21,4.2,4.87Z"></path>
        </g>
        <g>
          <path class="cls-11" d="M82.44,115.01c-.11-1.12-.28-2.16-.51-3.15,2.06-.13,4.19-.14,6.39.02,17.59,1.26,16.17,14.86,16.17,14.86.26,0-3.64.34-5.02-.1-7.24-3.45-12.01-4.51-17.27-4.82.36-2.26.45-4.61.23-6.81Z"></path>
          <path class="cls-20" d="M67.67,113.22c1.72-.43,3.56-.8,5.49-1.08,3.17-.44,6.57-.62,10.15-.36.02,0,.03,0,.05,0,17.54,1.28,16.12,14.85,16.12,14.85-9.48-3.53-17.71-4.85-24.49-5.03-2.01-.05-3.9,0-5.65.13l-1.67-8.52Z"></path>
        </g>
      </g>
    </g>
  </g>
</svg>
