<?xml version="1.0" encoding="UTF-8"?>
<svg xmlns="http://www.w3.org/2000/svg" viewBox="0 0 124.01 206.84">
  <defs>
    <style>
      .cls-1 {
        fill: #195a74;
      }

      .cls-2 {
        fill: #f0f0f1;
      }

      .cls-2, .cls-3 {
        mix-blend-mode: multiply;
      }

      .cls-2, .cls-3, .cls-4 {
        isolation: isolate;
      }

      .cls-3 {
        fill: #d0d1d3;
      }

      .cls-5 {
        fill: #003e51;
      }

      .cls-6 {
        fill: #6d6e71;
      }

      .cls-7 {
        fill: #808183;
      }

      .cls-8 {
        fill: #ea712a;
      }

      .cls-9 {
        fill: #59595b;
      }

      .cls-10 {
        fill: #00455b;
      }

      .cls-11 {
        fill: #414042;
      }
    </style>
  </defs>
  <g class="cls-4">
    <g id="Capa_1">
      <g>
        <g>
          <path class="cls-5" d="M85.97,88.02c-.14-1.43-.36-2.75-.65-4.01,2.63-.17,5.34-.18,8.14.03,22.42,1.61,20.61,18.94,20.61,18.94.33,0-4.64.43-6.4-.13-9.23-4.4-15.3-5.75-22.01-6.14.46-2.88.57-5.87.29-8.68h.01Z"></path>
          <path class="cls-10" d="M67.16,85.74c2.19-.55,4.54-1.02,7-1.38,4.04-.56,8.37-.79,12.93-.46h.06c22.35,1.63,20.54,18.92,20.54,18.92-12.08-4.5-22.57-6.18-31.21-6.41-2.56-.06-4.97,0-7.2.17l-2.13-10.86h0Z"></path>
        </g>
        <g>
          <g>
            <g>
              <g>
                <path class="cls-11" d="M70.65,171.78l6.65,3.78,33.03,16.01-2.32,3.42-45.72-13.83v-9.35c.22,0,8.13-.03,8.35-.04h.01Z"></path>
                <g>
                  <circle class="cls-9" cx="106.91" cy="196" r="5.71"></circle>
                  <path class="cls-6" d="M104.4,196c0,1.39,1.12,2.51,2.51,2.51s2.51-1.12,2.51-2.51-1.12-2.51-2.51-2.51-2.51,1.12-2.51,2.51Z"></path>
                </g>
              </g>
              <g>
                <path class="cls-11" d="M47.29,175.56l6.5-3.71c.27-.01,8.23-.04,8.5-.05v9.35l-45.72,13.83-2.32-3.42,33.03-16.01h.01Z"></path>
                <g>
                  <circle class="cls-9" cx="17.86" cy="196" r="5.71" transform="translate(-170.06 137.49) rotate(-67.5)"></circle>
                  <path class="cls-6" d="M15.35,196c0,1.39,1.12,2.51,2.51,2.51s2.51-1.12,2.51-2.51-1.12-2.51-2.51-2.51-2.51,1.12-2.51,2.51Z"></path>
                </g>
              </g>
            </g>
            <g>
              <path class="cls-11" d="M66.93,171.61l-.33,2.22-2.19,27.58-2.01-.43-2.01.43-2.19-27.58-.27-1.73c3.01-.2,6.01-.4,9.02-.47h-.01Z"></path>
              <g>
                <circle class="cls-9" cx="62.38" cy="201.13" r="5.71"></circle>
                <path class="cls-6" d="M59.87,201.13c0,1.39,1.12,2.51,2.51,2.51s2.51-1.12,2.51-2.51-1.12-2.51-2.51-2.51-2.51,1.12-2.51,2.51Z"></path>
              </g>
            </g>
          </g>
          <rect class="cls-7" x="57.7" y="160.73" width="9.34" height="11.09"></rect>
          <polygon class="cls-11" points="61.94 133 62.47 133 90.63 133 68.26 142.5 68.26 161.94 62.47 161.94 61.94 161.94 56.15 161.94 56.15 142.5 33.77 133 61.94 133"></polygon>
          <path class="cls-10" d="M33.77,135.07h78.86c8.6,0,9.35-1.54,11.38-6.21H32.58l-4.29-2.77-4.83-3.11s-.52,12.08,10.33,12.08h-.01Z"></path>
          <path class="cls-10" d="M3.88,37.63l-2.97,2.34s-3.17-13.14,2.34-18.27c5.52-5.14,7.95-5.52,8.33-9.75C11.97,7.72,11.36,0,21.28,0s-.71,33.91-.71,33.91c0,0-16.69,3.72-16.69,3.72Z"></path>
          <path class="cls-10" d="M25.83,128.86c-.11-.11-.4-1.11-.78-2.8l-.03-.03c-2.1-9.1-7.8-38.64-12.97-66.02,0,0-.03,0-.03-.03-1.38-7.26-2.71-14.37-3.94-20.91-1.44.32-2.87-5.47-4.31-5.16-1.04.23-2.01,6.3-2.89,6.05.14.85.28,1.64.41,2.32.11.55.36,1.67.66,3.31,2.63,13.46,11.41,60.06,14.62,74.17,3.59,15.8,17.18,15.32,17.18,15.32,0,0-6.56-4.73-7.94-6.21h.01Z"></path>
          <path class="cls-1" d="M79.98,120.86s-46.84,7.84-50.5,8.02c-1.85,0-3.29-1.17-4.42-2.8v-.03c-2.48-3.59-3.39-9.34-3.39-9.34l-1.22-5.66L6.67,47.3l-.23-1.02-.13-.57c-.01-.08-.01-.11-.01-.11l-2.34-10.82c-.57-6.82,1.59-11.48,8.27-15.64C18.67,15.11,11.18.48,21.28,0c0,0,9.16.31,12.4.76,6.14.71,5.98,11.94,13.06,17.53.04.03.08.06.13.09.7.55,1.48,1.04,2.34,1.45,5.43,3.39,9.29,5.43,11.15,10.74,4.56,20.36,11.33,51.7,15.6,71.58.22.98.42,1.94.61,2.85.06.33.14.65.2.98,1.92,9,3.17,14.85,3.17,14.85h.03Z"></path>
          <path class="cls-8" d="M30.87,99.46c-.76,4.13-5.94,8.5-10.44,11.58L6.66,47.3l-.23-1.02-.13-.57c-.01-.08-.01-.11-.01-.11l-2.34-10.82c-.57-6.82,1.59-11.48,8.27-15.64,0,0,11.25,6.52,13.29,18.5,2.04,11.97,6.74,54.32,5.35,61.82h.01Z"></path>
          <path class="cls-8" d="M76.79,106.01c-4.87-1.17-9.9-3.06-11.95-6.09-4.49-6.61-17.83-49.23-20.91-61.56-2.04-8.18.79-15.76,2.94-19.96.7.55,1.48,1.04,2.34,1.45,5.43,3.39,9.29,5.43,11.15,10.74,4.56,20.36,11.33,51.7,15.6,71.58.22.98.42,1.94.61,2.85.06.33.14.65.2.98h.01Z"></path>
          <path class="cls-2" d="M.96,40.59c2.63,13.46,12.41,65.05,15.62,79.16,3.26,14.76,15.71,15.24,15.71,15.24,0,0-1.77-.11-2.94-1.99-.11-.11-1.1-2.08-.94-4.15,3.66-.18,51.56-8.02,51.56-8.02,0,0-1.34-6.27-3.39-15.81-39.42-12.45-56.89-31.79-64.53-45.02,0,0-.03,0-.03-.03-3.33-5.73-4.79-10.33-5.36-12.68-.11-.41-.19-.76-.23-1.03-.06-.27-.1-.45-.11-.56-.03-.08-1.3-6.07-1.3-6.07l-4.05.94h0Z"></path>
          <path class="cls-8" d="M28.42,128.86h95.57c0-9.63-2.78-12.4-11.38-12.4H38.88c-8.89,0-10.49,5.98-10.63,9.63-.06,1.62.15,2.77.15,2.77h.01Z"></path>
          <path class="cls-3" d="M33.77,135.07h39.94v-6.04s0-12.55-7.4-12.55h-27.41c-8.89,0-10.49,5.98-10.63,9.63l.15,2.77s-.42,6.64,5.35,6.21h0Z"></path>
        </g>
        <g>
          <path class="cls-5" d="M28.52,88.02c-.14-1.43-.36-2.75-.65-4.01,2.63-.17,5.34-.18,8.14.03,22.42,1.61,20.61,18.94,20.61,18.94.33,0-4.64.43-6.4-.13-9.23-4.4-15.3-5.75-22.01-6.14.46-2.88.57-5.87.29-8.68h.01Z"></path>
          <path class="cls-10" d="M9.7,85.74c2.19-.55,4.54-1.02,7-1.38,4.04-.56,8.37-.79,12.93-.46h.06c22.35,1.63,20.54,18.92,20.54,18.92-12.08-4.5-22.57-6.18-31.21-6.41-2.56-.06-4.97,0-7.2.17l-2.13-10.86h0Z"></path>
        </g>
      </g>
    </g>
  </g>
</svg>
